<svg width="400" height="342" viewBox="0 0 400 342" fill="none" xmlns="http://www.w3.org/2000/svg">
<g clip-path="url(#clip0)">
<path d="M219.359 135.463C219.359 135.463 217.826 133.009 216.6 129.329C216.497 129.023 216.395 128.716 216.293 128.307C215.577 125.752 214.862 123.299 214.657 119.823C214.555 117.574 214.555 114.814 214.862 111.441C215.475 103.57 219.462 87.9309 220.279 84.6599C220.279 84.5577 220.484 84.4555 220.586 84.6599C221.915 88.442 231.319 107.148 231.932 108.886C232.341 110.01 231.523 114.814 230.603 119.823C229.99 123.094 229.377 126.467 228.866 128.921C228.866 129.023 228.866 129.227 228.764 129.329C227.639 135.258 224.777 136.587 224.266 136.894C223.755 137.2 217.519 134.849 216.906 134.543C216.395 134.236 213.226 137.916 212.715 139.04C212.204 140.267 217.622 147.524 218.644 147.524C219.257 147.524 220.586 146.298 221.608 145.276C222.222 144.662 222.63 144.151 222.835 143.947C223.244 143.436 228.252 145.582 229.377 145.276C230.501 145.071 231.319 144.356 232.035 141.8C232.443 140.369 234.59 134.645 236.634 129.227C238.168 125.241 239.701 121.459 240.519 119.721C240.519 119.619 240.621 119.516 240.621 119.414C242.256 116.041 242.87 110.726 241.95 108.477C241.03 106.228 232.75 84.8644 231.115 77.7091C229.377 70.5538 223.653 66.6695 221.199 64.9318C218.746 63.1941 205.049 64.9318 202.8 65.034C200.551 65.1362 199.529 61.8652 199.529 61.8652C199.529 61.8652 205.049 59.0031 206.071 54.5055C207.093 50.1101 200.347 32.733 196.054 25.9865C191.76 19.2401 186.138 24.2488 186.138 24.2488C186.138 24.2488 179.392 19.4446 176.019 26.0888C172.646 32.6307 167.024 50.9279 170.499 59.7186C174.077 68.6116 186.445 64.4207 186.445 64.4207C186.445 64.4207 188.285 70.0427 185.116 71.3715C181.947 72.7004 173.668 70.9627 171.112 75.1536C168.557 79.3446 167.535 84.8644 166.717 90.1797C165.899 95.4951 163.344 105.615 162.322 110.317C161.81 112.77 161.197 116.348 160.89 119.823C160.584 122.89 160.584 125.956 160.993 128.205C161.095 128.614 161.197 129.023 161.299 129.329C162.424 133.418 165.081 136.076 165.286 139.347C165.49 142.924 164.468 144.662 163.446 147.933C162.424 151.204 163.855 153.964 165.899 155.293C165.899 155.293 165.695 171.443 170.806 181.359C175.099 189.843 180.005 198.122 181.845 203.438C182.152 204.358 182.459 205.176 182.561 205.891C183.379 210.798 182.356 212.944 183.992 216.113C185.627 219.179 186.241 220.611 186.241 224.495C186.343 227.255 185.423 233.286 185.321 238.192C185.218 240.339 185.321 242.179 185.73 243.507C186.956 247.698 194.111 265.076 194.214 267.835C194.214 268.347 194.316 269.164 194.316 270.084C194.418 271.924 194.52 274.275 194.52 276.422C194.52 276.933 194.52 277.444 194.52 277.955C194.418 278.671 194.418 279.284 194.316 279.795C194.214 280.408 194.009 281.022 193.805 281.328C192.374 283.27 184.503 290.221 183.992 290.732C183.379 291.243 194.111 291.959 194.929 291.652" stroke="#303236" stroke-miterlimit="10"/>
<path d="M165.798 155.293C164.98 146.809 167.331 137.2 169.989 129.329C170.296 128.307 170.704 127.387 171.011 126.467C171.931 124.014 172.749 121.765 173.464 119.925C174.589 117.165 175.304 115.121 175.509 114.201C176.02 110.726 175.1 107.966 173.873 102.855C173.771 102.242 173.567 101.628 173.464 100.913C172.033 94.6773 174.998 83.9444 174.998 83.9444" stroke="#303236" stroke-miterlimit="10"/>
<path d="M173.973 102.753C173.973 102.753 169.169 112.872 169.374 115.939C169.578 119.005 171.111 126.467 171.111 126.467" stroke="#303236" stroke-miterlimit="10"/>
<path d="M221.611 145.378C221.611 145.378 222.02 164.493 220.385 171.75C219.158 177.065 213.229 193.829 210.061 203.438C208.936 207.015 208.221 209.571 208.221 210.389C208.221 213.251 207.505 217.544 208.221 219.486C208.732 221.122 211.185 231.241 211.798 238.294C211.901 239.725 211.901 240.952 211.901 241.974C211.492 248.209 205.665 265.587 205.154 269.164C205.154 269.471 205.052 269.778 205.052 270.186C204.745 272.537 204.541 276.524 204.541 279.897C204.541 282.555 204.745 284.804 205.154 285.826C206.176 288.177 210.163 292.879 210.776 295.128V295.23C211.389 297.377 210.469 299.728 208.527 300.239C206.585 300.75 198.203 301.159 196.874 299.728C196.261 299.012 195.75 297.377 195.341 295.23C195.137 294.106 194.932 292.981 194.83 291.755C194.626 290.119 194.523 288.586 194.626 287.257C194.728 284.906 194.626 281.942 194.626 279.897C194.626 279.182 194.626 278.568 194.523 278.057C194.523 277.546 194.523 277.239 194.523 277.239" stroke="#303236" stroke-miterlimit="10"/>
<path d="M194.316 168.377C194.316 168.377 192.783 189.127 192.578 196.18C192.476 198.531 192.374 200.985 192.374 203.438C192.271 208.549 192.271 213.66 192.578 217.237C193.089 222.553 194.725 225.619 193.6 231.241C192.476 236.761 196.156 256.08 196.36 260.476C196.462 262.725 195.951 266.711 195.44 270.186C194.929 273.355 194.418 276.115 194.418 276.524" stroke="#303236" stroke-miterlimit="10"/>
<path d="M175.91 123.094C176.421 123.299 177.035 123.503 177.852 123.81" stroke="#FF6F40" stroke-miterlimit="10"/>
<path d="M181.332 124.73C186.852 125.956 195.949 126.672 208.522 123.81" stroke="#FF6F40" stroke-width="1.5" stroke-miterlimit="10" stroke-dasharray="3.57 3.57"/>
<path d="M210.258 123.401C210.871 123.196 211.587 123.094 212.2 122.89" stroke="#FF6F40" stroke-miterlimit="10"/>
<path d="M177.651 128.103L178.57 127.592L176.322 123.094L180.922 121.152L180.615 120.232L174.891 122.583L177.651 128.103Z" fill="#FF6F40"/>
<path d="M209.95 127.796L209.132 127.183L211.892 122.992L207.395 120.539L207.906 119.619L213.323 122.583L209.95 127.796Z" fill="#FF6F40"/>
<path d="M205.859 60.2298C209.13 59.0032 219.761 55.7322 228.143 61.1498" stroke="#FF6F40" stroke-width="1.5" stroke-miterlimit="10" stroke-dasharray="4 4"/>
<path d="M210.462 63.1941L210.871 62.1719L206.271 60.2298L208.622 55.7322L207.702 55.2211L204.84 60.6386L210.462 63.1941Z" fill="#FF6F40"/>
<path d="M223.036 63.1941L222.832 62.172L227.739 61.1498L226.307 56.2433L227.33 55.9366L229.067 61.8653L223.036 63.1941Z" fill="#FF6F40"/>
<path d="M177.866 67.7939C175.413 67.8961 169.689 68.5094 166.418 71.6782" stroke="#FF6F40" stroke-width="1.5" stroke-miterlimit="10" stroke-dasharray="4 4"/>
<path d="M174.184 64.0118L173.57 64.7273L177.455 67.8961L174.081 71.5759L174.797 72.2915L178.988 67.7939L174.184 64.0118Z" fill="#FF6F40"/>
<path d="M166.415 66.465L167.437 66.5672L166.824 71.5759L171.832 71.8826V72.9048L165.699 72.5981L166.415 66.465Z" fill="#FF6F40"/>
<path d="M157.823 77.8114C154.961 92.2242 152.61 103.877 150.975 120.13C144.535 181.768 161.912 239.419 170.498 283.884" stroke="#FF6F40" stroke-width="1.5" stroke-miterlimit="10" stroke-dasharray="4 4"/>
<path d="M153.121 80.3668L153.734 81.1845L157.823 78.2202L160.481 82.4111L161.299 81.9001L158.028 76.6869L153.121 80.3668Z" fill="#FF6F40"/>
<path d="M165.699 281.431L166.21 280.613L170.401 283.577L172.957 279.182L173.877 279.795L170.708 285.008L165.699 281.431Z" fill="#FF6F40"/>
<path d="M233.156 65.7495C236.018 70.2471 248.591 90.793 250.022 108.886" stroke="#FF6F40" stroke-width="1.5" stroke-miterlimit="10" stroke-dasharray="4 4"/>
<path d="M231.422 70.8604L232.444 71.0648L233.364 66.1584L238.168 67.4872L238.475 66.465L232.546 64.8295L231.422 70.8604Z" fill="#FF6F40"/>
<path d="M245.527 106.024L246.141 105.206L249.923 108.579L252.989 104.592L253.807 105.206L250.025 110.112L245.527 106.024Z" fill="#FF6F40"/>
<path d="M169.991 129.329C167.333 137.2 164.88 146.809 165.8 155.293C165.8 155.293 165.595 171.443 170.706 181.358C174.999 189.843 179.906 198.122 181.746 203.438C182.052 204.358 182.257 205.175 182.461 205.891C183.279 210.797 182.257 212.944 183.892 216.113C185.528 219.179 186.141 220.61 186.141 224.495C186.141 227.255 185.323 233.285 185.221 238.192C185.221 240.339 185.221 242.281 185.63 243.507C186.754 247.8 194.012 265.178 194.114 267.835C194.114 268.346 194.216 269.164 194.216 270.084H82.5938V129.329H161.41" stroke="#303236" stroke-miterlimit="10"/>
<path d="M228.757 129.432C227.531 135.36 224.673 136.791 224.162 136.996C223.651 137.2 217.314 134.951 216.803 134.645C216.292 134.338 213.123 137.916 212.612 139.142C212.101 140.369 217.518 147.626 218.54 147.626C219.154 147.626 220.483 146.4 221.505 145.378C221.505 145.378 222.016 164.492 220.278 171.75C219.051 177.065 213.021 193.727 209.954 203.438C208.83 207.015 208.114 209.673 208.114 210.389C208.114 213.251 207.399 217.544 208.114 219.486C208.727 221.122 211.181 231.343 211.692 238.294C211.794 239.623 211.896 240.952 211.794 241.974C211.283 248.209 205.559 265.587 205.048 269.164C205.048 269.471 204.945 269.778 204.945 270.186H311.15V129.329V129.432H236.53" stroke="#303236" stroke-miterlimit="10"/>
<path d="M194.418 279.897H194.111H169.579H97.3104H72.0625V126.774C72.0625 122.992 75.0268 119.823 79.1156 119.823H150.975H160.788" stroke="#303236" stroke-miterlimit="10"/>
<path d="M214.655 119.823H230.499M240.415 119.823H314.83C318.612 119.823 321.883 122.787 321.883 126.774V279.897H321.678H299.906H204.434" stroke="#303236" stroke-miterlimit="10"/>
<path d="M206.479 318.842C234.793 318.842 343.349 318.842 353.878 318.842C363.895 318.842 371.664 315.06 374.117 313.629C374.321 313.425 374.321 313.118 373.913 313.118H205.763H185.013H25.5521C25.3477 313.118 25.3477 313.323 25.3477 313.629C27.8009 315.163 35.5695 318.842 45.5869 318.842C56.3198 318.842 170.702 318.842 199.732 318.842C204.23 318.842 206.479 318.842 206.479 318.842Z" stroke="#303236" stroke-miterlimit="10"/>
<path d="M97.6225 279.591L97.3158 279.795L80.3475 293.594C79.8365 294.106 80.1431 295.128 80.8586 295.128H136.874H195.139" stroke="#303236" stroke-miterlimit="10"/>
<path d="M210.675 295.128H212.004H316.369C317.084 295.128 317.391 294.106 316.88 293.594L299.911 279.795L299.605 279.591H321.377L321.786 279.795L375.655 309.029C376.166 309.541 376.166 310.256 375.349 310.256H176.227H24.0239C23.5128 310.256 23.3084 309.541 23.8195 309.234L72.0666 279.897" stroke="#303236" stroke-miterlimit="10"/>
<path d="M166.92 168.683H153.223" stroke="#303236" stroke-miterlimit="10"/>
<path d="M278.235 168.683H220.891" stroke="#303236" stroke-miterlimit="10"/>
<path d="M181.742 203.438H154.245H153.223" stroke="#303236" stroke-miterlimit="10"/>
<path d="M235.916 203.438H210.055" stroke="#303236" stroke-miterlimit="10"/>
<path d="M246.348 203.438H277.32" stroke="#303236" stroke-miterlimit="10"/>
<path d="M278.24 238.192H211.695" stroke="#303236" stroke-miterlimit="10"/>
<path d="M153.223 238.192H185.041" stroke="#303236" stroke-miterlimit="10"/>
<path d="M126.95 161.528H112.844V183.505H133.696V176.861" stroke="#FF6F40" stroke-miterlimit="10"/>
<path d="M119.805 172.568L123.382 176.145L139.737 159.688" stroke="#FF6F40" stroke-miterlimit="10"/>
<path d="M126.95 193.114H112.844V214.988H133.696V208.344" stroke="#FF6F40" stroke-miterlimit="10"/>
<path d="M119.805 204.051L123.382 207.629L139.737 191.172" stroke="#FF6F40" stroke-miterlimit="10"/>
<path d="M126.95 227.868H112.844V249.743H133.696V243.098" stroke="#FF6F40" stroke-miterlimit="10"/>
<path d="M119.805 238.908L123.382 242.485L139.737 226.028" stroke="#FF6F40" stroke-miterlimit="10"/>
<path d="M46.3145 63.3355C46.3145 64.9549 45.3532 66.4753 43.9041 67.6125C42.4569 68.7481 40.5955 69.4403 38.9437 69.4403C35.6751 69.4403 33.0039 66.7191 33.0039 63.3355C33.0039 61.6345 33.68 59.8156 34.7819 58.4253C35.8849 57.0335 37.3636 56.1298 38.9437 56.1298C40.5486 56.1298 42.3984 57.058 43.8655 58.4744C45.3329 59.8911 46.3145 61.6961 46.3145 63.3355Z" stroke="#FF6F40"/>
<path d="M133.7 62.5492C133.7 71.1475 125.217 80.6733 116.834 80.6733C108.45 80.6733 95.8789 71.8945 95.8789 63.2962C95.8789 54.6978 106.764 44.3857 115.147 44.3857C123.53 44.3857 133.7 53.9508 133.7 62.5492Z" stroke="#FF6F40" stroke-dasharray="3 3"/>
<path d="M79.021 94.14C79.021 97.2905 77.3794 100.837 74.8759 103.608C72.3708 106.38 69.088 108.283 65.8919 108.283C62.6683 108.283 58.5196 106.354 55.1527 103.558C53.4782 102.168 52.0215 100.582 50.9869 98.9516C49.95 97.3175 49.3555 95.6681 49.3555 94.14C49.3555 91.0402 51.4576 87.6716 54.4796 85.0473C57.4953 82.4285 61.3017 80.6622 64.529 80.6622C67.7513 80.6622 71.3842 82.4242 74.227 85.0378C77.0732 87.6546 79.021 91.0255 79.021 94.14Z" stroke="#303236"/>
</g>
<defs>
<clipPath id="clip0">
<rect width="353.574" height="297.353" fill="white" transform="translate(23 22)"/>
</clipPath>
</defs>
</svg>
