<svg width="400" height="342" viewBox="0 0 400 342" fill="none" xmlns="http://www.w3.org/2000/svg">
<path d="M124.549 229.802C124.549 227.25 126.324 224.855 128.989 223.068C131.642 221.289 135.072 220.191 138.152 220.191C144.313 220.191 149.191 224.554 149.191 229.802C149.191 232.448 147.962 235.28 145.945 237.454C143.931 239.626 141.172 241.099 138.152 241.099C135.113 241.099 131.696 239.608 129.029 237.409C126.351 235.2 124.549 232.378 124.549 229.802Z" stroke="#FF6F40"/>
<path d="M56.4599 247.066C56.4599 245.204 57.5108 243.176 59.1507 241.598C60.7873 240.023 62.9364 238.969 65.0291 238.969C67.1541 238.969 69.8737 239.961 72.07 241.473C73.1627 242.225 74.1033 243.09 74.7665 243.998C75.4309 244.908 75.7969 245.831 75.7969 246.712C75.7969 248.535 74.4652 250.651 72.482 252.346C70.5094 254.033 68.0304 255.182 65.936 255.182C63.8342 255.182 61.4509 254.115 59.5817 252.523C57.7037 250.924 56.4599 248.896 56.4599 247.066Z" stroke="#FF6F40"/>
<path d="M89.566 213.577C89.566 210.683 92.926 207.172 96.2467 207.172C99.5674 207.172 104.598 210.683 104.598 213.577C104.598 216.471 100.235 219.691 96.9148 219.691C93.5941 219.691 89.566 216.471 89.566 213.577Z" stroke="#303236" stroke-dasharray="3 3"/>
<path d="M20.0625 20.0828H380.937" stroke="#303236" stroke-miterlimit="10"/>
<path d="M22.9297 26.326H380.929" stroke="#303236" stroke-miterlimit="10"/>
<path d="M256.155 97.2193C256.155 97.2193 254.183 124.985 253.444 130.736C252.705 136.486 251.801 151.437 251.554 159.734C251.308 168.031 247.365 187.089 247.365 187.089L246.133 186.596L240.711 184.378C240.711 184.378 241.697 176.328 242.6 171.563C243.586 166.798 243.668 140.429 243.422 134.022C243.175 127.614 244.408 108.72 245.722 103.873C247.036 99.0266 247.529 73.7251 248.844 69.782C250.158 65.8389 258.126 57.2134 258.126 57.2134C258.126 57.2134 258.208 57.8706 258.291 59.1028C258.373 60.1707 258.619 61.5672 258.866 63.2923C260.098 70.1927 262.973 80.7077 269.709 81.7756C279.813 83.3364 293.203 64.5246 292.875 53.0239C292.875 53.0239 292.875 52.7774 293.039 52.6131C293.285 52.2845 293.943 52.1203 295.503 53.0239C298.132 54.5847 306.922 61.6494 307.99 64.9353C308.811 67.564 310.372 100.259 311.687 115.867C311.769 116.442 311.769 116.935 311.851 117.428C311.851 117.428 311.851 117.428 311.851 117.51C312.097 120.385 312.344 122.439 312.508 123.424C312.672 124.246 312.837 125.56 312.919 127.203" stroke="#FF6F40" stroke-miterlimit="10"/>
<path d="M313.167 134.432C313.414 145.604 313.085 160.884 313.085 164.416C313.085 169.509 313.249 196.864 313.249 197.686C313.331 198.507 303.802 201.711 301.995 197.686C301.995 197.686 302.488 182.16 299.695 173.124C296.984 164.088 290.412 148.89 291.069 142.729C291.644 136.568 295.095 114.552 293.698 109.131" stroke="#FF6F40" stroke-miterlimit="10"/>
<path d="M246.219 186.514V197.193C246.219 197.193 258.13 197.275 262.73 199.74C267.331 202.204 281.049 206.312 284.828 205.737C288.607 205.162 298.465 198.754 300.272 198.261C302.079 197.768 302.079 197.686 302.079 197.686" stroke="#FF6F40" stroke-miterlimit="10"/>
<path d="M263.551 58.1992C266.015 59.76 271.93 62.553 274.887 62.1423C278.337 61.7316 286.306 59.3493 288.442 56.8027C288.606 56.6384 288.77 56.392 288.934 56.2277" stroke="#FF6F40" stroke-miterlimit="10"/>
<path d="M293.036 52.3668C293.036 52.3668 292.953 52.449 292.707 52.6133" stroke="#303236" stroke-miterlimit="10"/>
<path d="M260.018 56.8849C258.95 56.8849 258.129 57.0492 258.129 57.0492" stroke="#FF6F40" stroke-miterlimit="10"/>
<path d="M258.871 63.0462C258.871 63.0462 273.576 47.1095 277.026 47.1095C280.476 47.1095 291.894 59.3495 291.894 59.3495" stroke="#303236" stroke-miterlimit="10"/>
<path d="M292.877 52.7778C292.877 52.7778 283.184 42.5093 281.212 39.3055C279.241 36.1018 275.051 35.9375 272.505 40.8663C270.451 44.6451 258.211 58.9388 258.211 58.9388" stroke="#303236" stroke-miterlimit="10"/>
<path d="M274.395 20.1649C274.395 20.1649 276.037 14.0038 280.309 15.1539C284.581 16.3039 284.088 22.3007 281.131 26.4081C278.173 30.5155 277.845 30.0226 277.598 32.487C277.352 34.9515 277.27 37.0052 277.27 37.0052" stroke="#303236" stroke-miterlimit="10"/>
<path d="M374.948 172.549C374.948 172.549 324.098 142.236 319.416 139.936C314.733 137.636 314.158 135.747 312.105 133.036C310.955 126.628 304.629 123.425 306.601 122.192C308.079 121.207 311.201 124.985 312.68 126.957C312.844 127.203 313.173 127.039 313.09 126.71C312.844 125.314 311.694 117.181 311.694 117.181C311.694 117.181 311.119 115.128 312.187 114.635C314.487 115.374 312.433 114.553 318.841 121.124C318.841 121.124 322.866 123.507 323.934 126.135C325.002 128.682 326.398 132.625 328.452 135.254C330.506 137.8 337.488 141.497 341.513 143.222C345.539 144.947 362.133 152.012 376.591 156.448" stroke="#FF6F40" stroke-miterlimit="10"/>
<path d="M232.5 19.6721C232.5 19.6721 233.979 14.0039 237.84 15.154C241.701 16.2219 241.29 21.7258 238.579 25.4225C235.868 29.2013 235.539 28.7084 235.293 30.9264C235.047 33.1444 235.047 35.0338 235.047 35.0338" stroke="#303236" stroke-miterlimit="10"/>
<path d="M238.411 36.6767C238.329 36.5945 238.329 36.5945 238.247 36.5124C238.165 36.3481 238.001 36.2659 237.918 36.1016C237.836 36.0195 237.754 35.9373 237.59 35.8552C237.508 35.773 237.426 35.773 237.426 35.6909C237.343 35.6087 237.261 35.6087 237.179 35.5266C237.097 35.4444 237.015 35.4444 236.933 35.4444C236.851 35.3623 236.686 35.3623 236.604 35.2801C236.522 35.198 236.358 35.198 236.275 35.198H236.193C236.111 35.198 236.111 35.198 236.029 35.198C235.947 35.198 235.865 35.198 235.783 35.198C235.7 35.198 235.7 35.198 235.618 35.198C235.536 35.198 235.454 35.198 235.372 35.198C235.372 35.198 235.372 35.198 235.29 35.198C235.29 35.198 235.29 35.198 235.208 35.198C235.125 35.198 235.043 35.198 235.043 35.198C234.961 35.198 234.961 35.198 234.879 35.198C234.797 35.198 234.715 35.198 234.633 35.198C234.55 35.198 234.468 35.198 234.468 35.198C234.304 35.198 234.14 35.2801 233.975 35.3623C233.893 35.3623 233.811 35.4444 233.729 35.4444C233.647 35.4444 233.647 35.4444 233.565 35.5266C233.482 35.5266 233.482 35.5266 233.4 35.6087C233.318 35.6087 233.236 35.6909 233.154 35.773C233.072 35.8552 232.99 35.9373 232.907 35.9373C232.907 35.9373 232.825 35.9373 232.825 36.0195C232.661 36.1838 232.415 36.3481 232.25 36.5124C232.168 36.5945 232.168 36.5945 232.086 36.6767" stroke="#303236" stroke-miterlimit="10"/>
<path d="M219.277 59.9245C219.442 59.7602 219.524 59.5959 219.688 59.3495C220.592 58.1173 221.577 56.8029 222.645 55.4886C225.274 52.2848 227.985 49.4918 230.696 47.1916C230.942 47.0273 231.107 46.7809 231.353 46.6166C232.75 45.4665 234.064 44.3986 235.378 43.4128C239.239 46.288 243.593 50.2311 247.783 55.2421C247.865 55.3243 247.947 55.4064 248.029 55.4886C248.193 55.6529 248.358 55.8993 248.522 56.0636" stroke="#303236" stroke-miterlimit="10"/>
<path d="M216.148 56.3102C216.888 54.9958 217.791 53.5993 218.695 52.2028C221.159 48.5062 223.706 45.3024 226.17 42.5094C228.142 40.2914 230.114 38.3198 231.921 36.5947C232.003 36.5126 232.003 36.5126 232.085 36.4304C232.167 36.3483 232.249 36.2662 232.332 36.184L232.414 36.1019C232.496 36.0197 232.578 36.0197 232.578 35.9376L232.66 35.8554C232.742 35.7733 232.824 35.6911 232.907 35.6911C232.989 35.609 233.071 35.609 233.153 35.5268C233.235 35.5268 233.235 35.4447 233.317 35.4447C233.399 35.4447 233.399 35.3625 233.482 35.3625C233.564 35.2804 233.646 35.2804 233.728 35.2804C233.892 35.1982 234.057 35.1982 234.221 35.1161C234.303 35.1161 234.385 35.1161 234.385 35.0339C234.467 35.0339 234.55 35.0339 234.632 35.0339C234.714 35.0339 234.714 35.0339 234.796 35.0339C234.878 35.0339 234.878 35.0339 234.96 35.0339C234.96 35.0339 234.96 35.0339 235.042 35.0339C235.125 35.0339 235.125 35.0339 235.125 35.0339C235.207 35.0339 235.289 35.0339 235.371 35.0339C235.453 35.0339 235.453 35.0339 235.535 35.0339C235.617 35.0339 235.7 35.0339 235.782 35.0339C235.864 35.0339 235.864 35.0339 235.946 35.1161H236.028C236.11 35.1161 236.275 35.1982 236.357 35.1982C236.439 35.1982 236.603 35.2804 236.685 35.3625C236.768 35.3625 236.85 35.4447 236.932 35.4447C237.014 35.4447 237.096 35.5268 237.178 35.609C237.26 35.609 237.26 35.6911 237.343 35.6911C237.425 35.7733 237.589 35.8554 237.671 35.9376C237.753 36.0197 237.753 36.0197 237.835 36.1019L237.918 36.184L238 36.2662C238.082 36.3483 238.082 36.3483 238.164 36.4304C242.025 40.0449 246.379 44.7274 250.486 50.642" stroke="#303236" stroke-miterlimit="10"/>
<path d="M214.1 64.2783C213.36 63.6211 213.114 62.3068 213.689 60.9102" stroke="#303236" stroke-miterlimit="10"/>
<path d="M253.115 62.8818C252.704 62.2246 252.294 61.5674 251.883 60.9102" stroke="#303236" stroke-miterlimit="10"/>
<path d="M256 59.4318C255.178 57.871 254.275 56.3102 253.289 54.6672" stroke="#303236" stroke-miterlimit="10"/>
<path d="M251.149 65.5925C251.149 65.2639 251.231 64.9354 251.231 64.7711C251.313 63.7853 251.56 62.4709 251.888 60.9923C252.463 58.3635 253.121 55.6527 253.285 54.749C253.449 53.599 252.463 50.8881 251.395 50.7238C251.231 50.6417 250.985 50.7238 250.738 50.9702C250.738 50.9702 250.328 51.7096 249.588 53.1882C249.177 54.0097 248.767 54.9955 248.274 56.2277C246.549 60.3351 244.495 66.6605 243.345 74.5466C243.099 76.2717 242.852 77.9147 242.523 79.4755C240.47 91.4691 237.759 100.505 235.212 103.463C232.255 106.831 227.983 107.816 228.23 105.27C228.476 102.723 225.449 98.7491 223.231 94.5595C221.013 90.2879 222.233 79.6398 221.329 74.9574C220.672 71.3429 219.933 63.8674 219.194 60.0065C219.194 59.76 219.111 59.5136 219.029 59.2672C218.865 58.4457 218.701 57.9528 218.536 57.6242C218.126 56.967 217.14 56.5563 216.154 56.392C215.25 56.2277 214.347 56.392 213.772 56.8849C213.443 57.2135 213.197 57.7064 213.279 58.3635C213.361 58.9386 213.443 59.8422 213.608 61.0744C213.69 62.0602 213.854 63.2103 214.018 64.4425C214.758 70.1928 215.908 78.079 215.908 81.0363C215.908 85.4723 215.99 98.5338 215.25 101.409C214.84 103.134 213.361 148.972 212.293 186.925C211.554 212.062 210.897 233.831 210.732 237.117C210.322 245.578 203.75 311.296 206.132 315.732C208.432 320.168 215.25 324.851 221.165 325.919C227.08 326.987 256.242 328.054 258.542 325.919C260.842 323.783 264.293 322.961 264.293 319.183C264.293 315.404 261.007 282.052 260.103 271.865C259.282 261.761 261.253 217.484 260.678 213.13C260.514 212.062 260.432 206.64 260.35 198.836" stroke="#303236" stroke-miterlimit="10"/>
<path d="M219.109 59.1853C219.274 59.2675 219.438 59.3496 219.602 59.4318C223.874 60.9926 230.035 62.3891 236.278 61.239C240.221 60.4997 244.164 58.7746 247.615 55.3244" stroke="#303236" stroke-miterlimit="10"/>
<path d="M142.871 132.625C143.035 122.932 143.528 101.82 143.856 97.7946C144.267 92.5371 151.085 59.7602 151.167 58.7744C151.167 58.4458 152.153 57.8708 153.385 57.1315C156.096 55.5707 160.45 53.517 161.025 53.0241C161.929 52.2848 169.158 49.4096 169.486 49.1632C169.815 48.9167 175.812 40.2912 176.798 41.0305C176.798 41.0305 176.798 41.1948 176.798 41.4413C176.798 42.1806 176.88 43.9057 177.044 46.288C177.126 48.8346 177.373 52.1205 177.537 55.8171C178.112 65.6748 179.016 78.1613 180.083 85.226C182.055 98.2053 187.148 122.685 186.655 127.121C186.491 128.436 186.162 131.311 185.752 134.925C184.684 143.387 183.041 155.709 181.809 161.295C180.412 167.127 179.18 176.081 177.701 181.01C177.208 182.735 165.461 266.197 164.886 266.69C162.586 268.498 152.235 267.019 144.185 265.376C136.134 263.733 134.984 264.062 134.984 264.062C134.984 264.062 146.732 178.135 147.553 172.878" stroke="#303236" stroke-miterlimit="10"/>
<path d="M150.675 132.872C150.347 120.549 150.84 95.0014 150.84 95.0014" stroke="#303236" stroke-miterlimit="10"/>
<path d="M169.492 49.1631C169.492 49.1631 167.11 76.7648 168.178 77.7506C169.246 78.7363 172.367 76.7648 172.367 76.7648" stroke="#303236" stroke-miterlimit="10"/>
<path d="M168.169 77.7505C168.169 77.7505 165.869 81.0364 166.855 83.3366C167.841 85.6367 169.648 87.1975 170.141 89.1691C170.634 91.1406 172.934 108.885 175.234 113.731C177.534 118.578 183.777 125.807 184.517 129.093C185.256 132.379 185.749 135.007 185.749 135.007" stroke="#303236" stroke-miterlimit="10"/>
<path d="M194.209 36.5943C194.209 36.5943 198.727 44.8912 198.481 49.2451C198.234 53.5989 194.373 68.3033 194.291 76.1895C194.209 84.0757 191.334 103.627 191.088 106.42C190.841 109.213 190.02 129.586 189.938 132.707C189.938 132.707 191.827 121.124 193.798 117.838C195.77 114.552 207.599 86.5401 208.01 83.9935C208.421 81.447 210.228 76.3538 209.407 75.4502C208.585 74.5466 205.628 74.8751 205.299 75.4502C204.971 76.0252 205.71 75.2037 205.71 75.2037C205.71 75.2037 207.928 71.2606 208.092 69.5355C208.256 67.8104 210.392 47.8485 203.656 40.1267C203.656 40.1267 194.127 33.5548 194.209 36.5943Z" stroke="#303236" stroke-miterlimit="10"/>
<path d="M200.789 38.2375C200.789 38.2375 207.197 39.059 209.661 39.9626C211.386 40.6198 220.587 41.4412 226.255 42.5092" stroke="#303236" stroke-miterlimit="10"/>
<path d="M231.188 46.6985C231.68 47.2735 232.584 48.3414 232.83 50.0665C232.995 51.0523 234.473 55.7347 236.281 61.1565" stroke="#303236" stroke-miterlimit="10"/>
<path d="M208.178 268.826C204.235 267.758 200.045 265.787 197.827 263.815C196.677 262.747 195.692 260.611 194.952 257.983C194.706 257.243 194.542 255.025 194.459 251.822C193.638 230.052 194.459 160.638 193.802 156.859C192.734 150.533 190.023 132.707 190.023 132.707" stroke="#303236" stroke-miterlimit="10"/>
<path d="M165.871 255.683C165.871 255.683 180.986 243.525 194.869 252.068" stroke="#303236" stroke-miterlimit="10"/>
<path d="M194.544 134.515C194.544 135.665 193.641 136.568 192.491 136.568C191.341 136.568 190.766 136.076 190.766 135.008C190.766 133.858 191.669 132.954 192.819 132.954C194.052 132.872 194.544 133.365 194.544 134.515Z" stroke="#303236" stroke-miterlimit="10"/>
<path d="M176.711 41.4413C176.711 41.4413 185.829 34.8694 188.705 35.0337C191.58 35.198 194.208 36.1838 194.208 36.1838" stroke="#303236" stroke-miterlimit="10"/>
<path d="M176.961 46.288C176.961 46.288 186.161 40.3734 188.133 40.6198C190.187 40.8662 196.759 42.1806 196.759 42.1806" stroke="#303236" stroke-miterlimit="10"/>
<path d="M177.293 52.5311L198.487 48.0951" stroke="#303236" stroke-miterlimit="10"/>
<path d="M177.293 55.1598L198.487 50.3953" stroke="#303236" stroke-miterlimit="10"/>
<path d="M185.508 19.6721C185.508 19.6721 186.986 14.0039 190.847 15.154C194.708 16.3041 194.298 21.7258 191.587 25.4225C188.876 29.1191 188.547 28.7084 188.301 30.9264C188.054 33.1444 188.054 35.0338 188.054 35.0338" stroke="#303236" stroke-miterlimit="10"/>
<path d="M147.881 37.2517C147.881 37.5803 147.059 44.2343 147.881 45.0557C148.702 45.8772 147.881 37.416 147.881 37.416L149.688 44.3164L148.949 37.6624" stroke="#303236" stroke-miterlimit="10"/>
<path d="M147.884 45.056L130.387 127.368C130.387 127.368 127.84 130.736 126.855 128.272C125.951 125.807 131.783 123.343 131.783 123.343C131.783 123.343 132.359 117.839 130.141 120.221C127.923 122.603 129.73 123.425 130.141 123.425C130.551 123.425 131.701 134.515 131.701 134.515C131.701 134.515 131.208 170.331 133.837 172.878C136.384 175.424 170.311 170.003 171.707 168.77C173.186 167.538 171.379 134.351 169.489 132.133C168.832 131.393 164.232 132.954 158.481 132.954C147.392 132.954 131.948 132.05 131.455 132.543C129.401 134.597 126.28 142.401 121.104 159.159C120.365 161.459 118.886 166.47 121.022 168.36C122.337 169.51 124.226 168.606 127.84 169.592C130.058 170.167 131.783 171.235 132.851 171.974" stroke="#303236" stroke-miterlimit="10"/>
<path d="M169.575 132.132L165.139 122.685C165.139 122.685 162.839 126.218 164.892 128.518C166.946 130.818 166.864 127.532 165.96 125.478C165.057 123.425 163.742 115.21 163.742 115.21C163.742 115.21 152.077 43.0843 149.695 44.3165C147.313 45.5487 147.066 49.1632 147.066 49.1632" stroke="#303236" stroke-miterlimit="10"/>
<path d="M148.623 37.9089C149.394 37.9089 150.02 37.2837 150.02 36.5124C150.02 35.7411 149.394 35.1159 148.623 35.1159C147.852 35.1159 147.227 35.7411 147.227 36.5124C147.227 37.2837 147.852 37.9089 148.623 37.9089Z" stroke="#303236" stroke-miterlimit="10"/>
<path d="M145.672 19.6721C145.672 19.6721 147.151 14.0039 151.011 15.154C154.872 16.3041 154.462 21.7258 151.751 25.4225C149.04 29.1191 148.711 28.7084 148.465 30.9264C148.218 33.1444 148.218 35.0338 148.218 35.0338" stroke="#303236" stroke-miterlimit="10"/>
<path d="M99.3525 191.69C99.3525 191.69 89.084 194.976 83.9909 191.608C78.8977 188.24 72.9009 184.872 66.822 186.268C60.8252 187.747 51.3782 188.24 51.3782 185.283C51.3782 182.325 47.0244 95.0845 47.0244 95.0845L48.3388 122.111C48.3388 122.111 44.0671 122.111 43.6563 124.822C43.1635 127.451 48.0102 137.391 47.7637 140.759C47.5173 144.127 49.8996 158.831 47.7637 163.185C45.6279 167.539 42.5884 179.122 43.6563 183.968C44.6421 188.815 44.1492 192.922 40.7812 193.662C37.4131 194.401 33.0593 202.944 31.5806 200.562C30.102 198.18 27.9661 163.924 28.459 159.817C28.9519 155.71 30.4306 134.515 32.32 126.136C34.2915 117.757 38.5632 87.6091 38.3167 83.9946C38.1524 80.3801 41.5205 58.0359 43.0813 55.9822C44.6421 53.9285 57.8679 45.4673 57.8679 45.4673C57.8679 45.4673 60.0859 56.0644 68.3007 58.6931C76.5154 61.2397 85.8803 45.303 86.291 41.2778C86.291 41.2778 106.417 42.5921 108.06 49.3282C109.703 56.0644 114.303 79.7229 113.975 91.9629C113.646 104.203 116.275 161.706 116.521 166.06C116.768 170.414 116.521 183.229 117.754 186.104C118.986 188.979 119.889 193.58 119.889 193.58C119.889 193.58 103.953 202.534 101.817 200.069C101.16 199.33 100.256 196.044 99.3525 191.69ZM99.3525 191.69C97.5452 183.065 95.8201 170.414 95.3272 165.567C94.5879 158.338 101.16 152.752 97.0524 147.248C92.945 141.662 88.3447 138.541 87.6054 131.805C86.866 125.068 94.3415 107.653 95.5737 95.331C96.8059 83.0088 97.2988 69.2901 97.2988 69.2901" stroke="#303236" stroke-miterlimit="10"/>
<path d="M58.1175 45.5489C58.0354 45.4667 57.9532 45.4667 57.8711 45.3846" stroke="#303236" stroke-miterlimit="10"/>
<path d="M86.2896 41.1949C86.2896 41.1949 86.1253 41.3592 85.8789 41.5235" stroke="#303236" stroke-miterlimit="10"/>
<path d="M61.2305 46.8632C70.3489 50.0669 77.9065 47.0275 82.3424 44.3166" stroke="#303236" stroke-miterlimit="10"/>
<path d="M58.125 45.5486C58.125 45.5486 69.4614 34.7051 72.2544 34.8694C75.0474 35.0337 86.3017 41.7698 86.3017 41.7698" stroke="#303236" stroke-miterlimit="10"/>
<path d="M58.9414 48.7523C58.9414 48.7523 69.7028 39.7982 71.6743 40.0447C73.6458 40.2911 84.5715 45.3843 84.5715 45.3843" stroke="#303236" stroke-miterlimit="10"/>
<path d="M60.6719 52.2027L83.6732 47.4381" stroke="#303236" stroke-miterlimit="10"/>
<path d="M61.9102 54.0101L82.94 49.3276" stroke="#303236" stroke-miterlimit="10"/>
<path d="M69.3672 19.6721C69.3672 19.6721 70.8458 14.0039 74.7068 15.154C78.5677 16.3041 78.157 21.7258 75.4461 25.4225C72.7352 29.1191 72.4067 28.7084 72.1602 30.9264C71.9138 33.1444 71.9138 35.0338 71.9138 35.0338" stroke="#303236" stroke-miterlimit="10"/>
</svg>
