<svg width="400" height="342" viewBox="0 0 400 342" fill="none" xmlns="http://www.w3.org/2000/svg">
<path d="M190.127 333.637C190.127 333.637 164.214 303.383 153.954 293.649C143.694 283.915 128.041 269.052 129.093 250.373C130.146 231.695 132.645 219.593 135.407 209.596C138.17 199.599 137.775 196.705 141.063 196.705C144.352 196.705 150.14 206.439 149.087 214.2C147.903 222.092 147.772 245.638 151.85 249.189C151.85 249.189 156.453 228.538 155.796 216.962C155.27 205.387 144.878 166.188 145.141 159.085C145.404 151.982 145.667 145.011 149.087 143.695C152.639 142.248 166.45 169.74 169.87 182.631C173.29 195.522 177.236 217.62 177.236 224.723" stroke="#303236" stroke-miterlimit="10"/>
<path d="M171.836 191.575C171.836 191.575 181.438 187.103 185.911 193.417C190.383 199.731 193.145 208.018 192.487 229.327" stroke="#303236" stroke-miterlimit="10"/>
<path d="M188.285 197.494C188.285 197.494 197.361 193.154 202.491 202.361C207.621 211.569 208.805 218.409 208.805 229.984" stroke="#303236" stroke-miterlimit="10"/>
<path d="M205.516 208.412C205.516 208.412 213.934 205.65 216.959 212.227C219.985 218.935 223.931 227.222 223.799 238.535C223.668 249.847 215.776 273.655 217.091 281.942C218.275 290.229 218.801 296.017 225.378 306.803C231.955 317.589 243.53 327.191 243.53 327.191" stroke="#303236" stroke-miterlimit="10"/>
<path d="M139.106 57.9324H81.8867V94.6316H139.106V57.9324Z" stroke="#303236" stroke-miterlimit="10"/>
<path d="M139.102 57.9323L150.151 54.6438" stroke="#303236" stroke-miterlimit="10"/>
<path d="M81.8867 57.9323L92.936 54.6438H150.155V91.4746L139.106 94.6315" stroke="#303236" stroke-miterlimit="10"/>
<path d="M139.102 75.6902L150.151 72.5332" stroke="#FF6F40" stroke-miterlimit="10" stroke-linecap="round"/>
<path d="M111.613 57.9323L122.663 54.6438" stroke="#FF6F40" stroke-miterlimit="10" stroke-linecap="round"/>
<path d="M111.613 94.6316V57.9324" stroke="#FF6F40" stroke-miterlimit="10" stroke-linecap="round"/>
<path d="M81.8867 75.6898H139.106" stroke="#FF6F40" stroke-miterlimit="10" stroke-linecap="round"/>
<path d="M117.539 56.2219C117.539 56.2219 129.246 53.7227 128.983 49.9081C128.72 46.225 119.118 53.1966 117.539 56.2219Z" stroke="#FF6F40" stroke-miterlimit="10" stroke-linecap="round"/>
<path d="M116.873 55.9591C117.136 56.0907 117.267 55.8276 117.136 55.5645C115.689 53.4599 110.69 46.4883 108.98 47.9353C107.007 49.6453 112.795 54.5122 116.873 55.9591Z" stroke="#FF6F40" stroke-miterlimit="10" stroke-linecap="round"/>
<path d="M125.159 60.4314C125.159 58.5899 117.267 55.5645 117.267 55.5645C117.267 55.5645 110.953 54.9068 110.164 54.1176" stroke="#FF6F40" stroke-miterlimit="10" stroke-linecap="round"/>
<path d="M88.5847 107.391L87.5323 107.785C87.5323 107.391 87.2693 106.996 87.0062 106.733C86.7431 106.47 86.217 106.207 85.6908 106.207C85.1647 106.207 84.77 106.339 84.507 106.602C84.2439 106.865 83.9808 107.259 83.9808 107.654C83.9808 107.917 84.1123 108.312 84.2439 108.443C84.3754 108.706 84.77 108.838 85.0331 108.969L86.3485 109.232C87.1377 109.364 87.6639 109.627 88.0585 110.153C88.4531 110.548 88.7162 111.074 88.7162 111.732C88.7162 112.389 88.4531 113.047 87.927 113.573C87.4008 114.099 86.6116 114.362 85.6908 114.362C84.6385 114.362 83.9808 114.099 83.3231 113.573C82.797 113.047 82.4023 112.389 82.4023 111.732L83.5862 111.337C83.5862 111.863 83.8493 112.258 84.2439 112.652C84.6385 113.047 85.1647 113.179 85.6908 113.179C86.217 113.179 86.7431 113.047 87.0062 112.784C87.2693 112.521 87.5323 112.126 87.5323 111.732C87.5323 111.337 87.4008 111.074 87.1377 110.811C86.8747 110.548 86.6116 110.416 86.217 110.285L84.9016 110.022C84.2439 109.89 83.7177 109.627 83.3231 109.232C82.9285 108.838 82.797 108.312 82.797 107.654C82.797 106.996 83.06 106.339 83.5862 105.812C84.1123 105.286 84.9016 105.023 85.6908 105.023C86.6116 105.023 87.2693 105.286 87.7954 105.681C88.19 106.339 88.4531 106.865 88.5847 107.391Z" fill="#303236"/>
<path d="M92.5369 106.339V108.312H93.8523V109.364H92.5369V112.521C92.5369 112.784 92.5369 113.047 92.6685 113.179C92.8 113.31 93.0631 113.442 93.3262 113.442C93.4577 113.442 93.7208 113.442 93.8523 113.442V114.494C93.5892 114.625 93.3262 114.625 93.0631 114.625C92.5369 114.625 92.1423 114.494 91.8792 114.231C91.6162 113.968 91.4846 113.573 91.4846 112.915V109.627H90.3008V108.312H90.5639C90.8269 108.312 91.09 108.18 91.2216 108.049C91.3531 107.917 91.4846 107.654 91.4846 107.391V106.47H92.5369V106.339Z" fill="#303236"/>
<path d="M97.6594 116.73H96.344L97.7909 113.573L95.1602 108.18H96.4755L98.3171 112.258L100.159 108.18H101.474L97.6594 116.73Z" fill="#303236"/>
<path d="M104.633 114.231H103.449V105.155H104.633V114.231Z" fill="#303236"/>
<path d="M107.529 106.601C107.397 106.47 107.266 106.207 107.266 105.944C107.266 105.681 107.397 105.549 107.529 105.286C107.66 105.155 107.923 105.023 108.186 105.023C108.449 105.023 108.581 105.155 108.844 105.286C108.976 105.418 109.107 105.681 109.107 105.944C109.107 106.207 108.976 106.338 108.844 106.601C108.713 106.733 108.449 106.865 108.186 106.865C107.923 106.865 107.66 106.733 107.529 106.601ZM108.713 114.231H107.529V108.311H108.713V114.231Z" fill="#303236"/>
<path d="M112.657 110.811V114.231H111.473V108.311H112.657V109.232C113.051 108.575 113.709 108.18 114.498 108.18C115.156 108.18 115.682 108.443 116.077 108.838C116.471 109.232 116.603 109.89 116.603 110.548V114.362H115.419V110.811C115.419 109.758 114.893 109.364 113.972 109.364C113.577 109.364 113.183 109.495 112.92 109.89C112.788 109.89 112.657 110.285 112.657 110.811Z" fill="#303236"/>
<path d="M118.836 114.625L120.02 114.362C120.02 114.757 120.283 115.152 120.546 115.415C120.809 115.678 121.204 115.809 121.73 115.809C122.914 115.809 123.571 115.152 123.571 113.836V112.915C123.44 113.179 123.177 113.442 122.914 113.573C122.651 113.705 122.256 113.836 121.73 113.836C120.941 113.836 120.283 113.573 119.757 113.047C119.231 112.521 118.967 111.863 118.967 110.942C118.967 110.153 119.231 109.364 119.757 108.838C120.283 108.312 120.941 108.049 121.73 108.049C122.651 108.049 123.308 108.312 123.571 108.969V108.312H124.755V113.836C124.755 114.231 124.755 114.625 124.624 114.889C124.492 115.283 124.361 115.546 124.097 115.809C123.834 116.072 123.571 116.335 123.177 116.467C122.782 116.599 122.256 116.73 121.73 116.73C120.941 116.73 120.414 116.467 119.888 116.072C119.231 115.809 118.836 115.283 118.836 114.625ZM121.73 113.047C122.256 113.047 122.651 112.915 122.914 112.521C123.177 112.126 123.44 111.732 123.44 111.074C123.44 110.416 123.308 110.022 122.914 109.627C122.519 109.232 122.124 109.101 121.73 109.101C121.204 109.101 120.809 109.232 120.414 109.627C120.151 110.022 119.888 110.416 119.888 111.074C119.888 111.6 120.02 112.126 120.414 112.521C120.809 112.784 121.204 113.047 121.73 113.047Z" fill="#303236"/>
<path d="M134.226 109.364H132.779V114.362H131.595V109.364H130.543V108.312H131.595V107.259C131.595 106.602 131.727 106.075 132.121 105.812C132.516 105.549 132.911 105.286 133.568 105.286C133.963 105.286 134.095 105.286 134.226 105.418V106.47C134.095 106.47 133.963 106.338 133.7 106.338C133.437 106.338 133.174 106.47 133.042 106.602C132.911 106.733 132.779 106.996 132.779 107.391V108.312H134.226V109.364Z" fill="#303236"/>
<path d="M140.28 112.258L141.332 112.652C141.2 113.179 140.806 113.705 140.411 113.968C139.885 114.362 139.359 114.494 138.701 114.494C137.912 114.494 137.123 114.231 136.597 113.573C136.07 113.047 135.676 112.258 135.676 111.205C135.676 110.285 135.939 109.495 136.465 108.969C136.991 108.312 137.649 108.049 138.438 108.049C139.359 108.049 140.017 108.312 140.543 108.838C141.069 109.364 141.332 110.153 141.332 111.074C141.332 111.205 141.332 111.337 141.332 111.469H136.86C136.86 111.995 136.991 112.389 137.386 112.784C137.78 113.179 138.175 113.31 138.701 113.31C139.359 113.442 140.017 113.047 140.28 112.258ZM136.728 110.679H140.017C140.017 110.285 139.885 109.89 139.622 109.627C139.359 109.364 138.964 109.232 138.438 109.232C137.912 109.232 137.649 109.364 137.254 109.627C136.991 109.89 136.86 110.285 136.728 110.679Z" fill="#303236"/>
<path d="M147.787 112.258L148.84 112.652C148.708 113.179 148.314 113.705 147.919 113.968C147.393 114.362 146.867 114.494 146.209 114.494C145.42 114.494 144.631 114.231 144.104 113.573C143.578 113.047 143.184 112.258 143.184 111.205C143.184 110.285 143.447 109.495 143.973 108.969C144.499 108.312 145.157 108.049 145.946 108.049C146.867 108.049 147.524 108.312 148.051 108.838C148.577 109.364 148.84 110.153 148.84 111.074C148.84 111.205 148.84 111.337 148.84 111.469H144.367C144.367 111.995 144.499 112.389 144.894 112.784C145.288 113.179 145.683 113.31 146.209 113.31C146.998 113.442 147.524 113.047 147.787 112.258ZM144.367 110.679H147.656C147.656 110.285 147.524 109.89 147.261 109.627C146.998 109.364 146.604 109.232 146.077 109.232C145.551 109.232 145.288 109.364 144.894 109.627C144.499 109.89 144.367 110.285 144.367 110.679Z" fill="#303236"/>
<path d="M82.2773 130.278V128.042L86.092 123.044H88.7227V128.437H90.3012V130.278H88.8543V132.252H86.6181V130.278H82.2773ZM86.4866 128.437V125.412L84.1189 128.437H86.4866Z" fill="#303236"/>
<path d="M91.2253 131.989L91.7514 130.147C92.2776 130.41 92.8037 130.542 93.3299 130.542C94.1191 130.542 94.7768 130.41 95.303 130.015C95.8291 129.621 96.0922 129.095 96.2238 128.305C96.0922 128.569 95.6976 128.832 95.4345 128.963C95.1714 129.095 94.6453 129.226 94.2507 129.226C93.3299 129.226 92.5407 128.963 92.0145 128.305C91.4884 127.648 91.0938 126.99 91.0938 126.069C91.0938 125.149 91.4884 124.359 92.1461 123.702C92.8037 123.044 93.7245 122.781 94.7768 122.781C95.8291 122.781 96.7499 123.175 97.5391 123.965C98.3284 124.754 98.5914 125.806 98.5914 127.253C98.5914 128.963 98.1968 130.147 97.2761 131.068C96.4868 131.989 95.1714 132.383 93.593 132.383C92.5407 132.383 91.7514 132.252 91.2253 131.989ZM95.4345 126.859C95.6976 126.595 95.8291 126.332 95.8291 125.938C95.8291 125.543 95.6976 125.28 95.4345 125.017C95.1714 124.754 94.9084 124.622 94.3822 124.622C93.9876 124.622 93.593 124.754 93.3299 125.017C93.0668 125.28 92.9353 125.543 92.9353 125.938C92.9353 126.332 93.0668 126.595 93.3299 126.859C93.593 127.122 93.8561 127.253 94.3822 127.253C94.9084 127.253 95.1714 127.122 95.4345 126.859Z" fill="#303236"/>
<path d="M103.326 131.916H102.273V124.024H103.326V131.916Z" fill="#303236"/>
<path d="M108.845 130.075L109.765 130.338C109.634 130.864 109.371 131.259 108.976 131.522C108.582 131.785 108.055 132.048 107.529 132.048C106.74 132.048 106.214 131.785 105.688 131.259C105.162 130.732 104.898 130.075 104.898 129.154C104.898 128.365 105.162 127.707 105.688 127.181C106.214 126.655 106.74 126.392 107.398 126.392C108.187 126.392 108.845 126.655 109.239 127.181C109.634 127.707 109.897 128.365 109.897 129.154C109.897 129.285 109.897 129.417 109.897 129.549H105.951C105.951 130.075 106.082 130.338 106.477 130.732C106.872 131.127 107.135 131.127 107.661 131.127C108.055 131.127 108.582 130.732 108.845 130.075ZM105.819 128.759H108.713C108.713 128.365 108.582 128.102 108.318 127.839C108.055 127.575 107.661 127.444 107.266 127.444C106.872 127.444 106.477 127.575 106.214 127.839C105.951 127.97 105.819 128.365 105.819 128.759Z" fill="#303236"/>
<path d="M111.083 125.076C110.952 124.945 110.82 124.813 110.82 124.55C110.82 124.287 110.952 124.155 111.083 124.024C111.215 123.892 111.346 123.761 111.61 123.761C111.873 123.761 112.004 123.892 112.136 124.024C112.267 124.155 112.399 124.287 112.399 124.55C112.399 124.813 112.267 124.945 112.136 125.076C112.004 125.208 111.873 125.339 111.61 125.339C111.346 125.339 111.215 125.208 111.083 125.076ZM112.004 131.916H110.952V126.655H112.004V131.916Z" fill="#303236"/>
<path d="M148.434 220.908H152.643C153.695 220.908 154.616 220.777 155.668 220.645" stroke="#303236" stroke-miterlimit="10"/>
<path d="M132.256 220.909H75.9577C67.5392 220.909 60.6992 214.069 60.6992 205.65V24.2585C60.6992 15.84 67.5392 9 75.9577 9H152.776C161.195 9 167.903 15.84 167.903 24.2585V177.764" stroke="#303236" stroke-miterlimit="10"/>
<path d="M148.832 216.042H151.068C152.647 216.042 154.094 215.779 155.54 215.253" stroke="#303236" stroke-miterlimit="10"/>
<path d="M85.8247 13.8669H77.5378C70.8293 13.8669 65.3047 19.3916 65.3047 26.1V203.677C65.3047 210.517 70.8293 216.042 77.6693 216.042H133.968" stroke="#303236" stroke-miterlimit="10"/>
<path d="M142.785 13.8669H151.072C157.912 13.8669 163.437 19.3916 163.437 26.2316V166.715" stroke="#303236" stroke-miterlimit="10"/>
<path d="M101.736 22.5484C102.753 22.5484 103.578 21.7239 103.578 20.7068C103.578 19.6898 102.753 18.8653 101.736 18.8653C100.719 18.8653 99.8945 19.6898 99.8945 20.7068C99.8945 21.7239 100.719 22.5484 101.736 22.5484Z" stroke="#303236" stroke-miterlimit="10"/>
<path d="M108.177 22.4168H126.987C127.908 22.4168 128.829 21.6276 128.829 20.5752C128.829 19.6545 128.04 18.7337 126.987 18.7337H108.177C107.257 18.7337 106.336 19.5229 106.336 20.5752C106.336 21.6276 107.257 22.4168 108.177 22.4168Z" stroke="#303236" stroke-miterlimit="10"/>
<path d="M306.007 86.6078C306.007 85.687 306.007 84.8978 305.875 83.977" stroke="#FF6F40" stroke-miterlimit="10" stroke-linecap="round"/>
<path d="M305.483 78.8471C301.537 42.9371 273.519 20.5755 242.081 19.5232C216.563 18.6025 198.673 34.124 191.57 41.6217" stroke="#FF6F40" stroke-miterlimit="10" stroke-linecap="round" stroke-dasharray="3.91 3.91"/>
<path d="M189.991 43.4631C188.939 44.7785 188.281 45.4362 188.281 45.4362" stroke="#FF6F40" stroke-miterlimit="10" stroke-linecap="round"/>
<path d="M301.145 82.7932L305.88 88.3178L313.772 77.9263" stroke="#FF6F40" stroke-miterlimit="10" stroke-linecap="round"/>
<path d="M235.651 246.164L231.836 252.478L244.332 256.556" stroke="#FF6F40" stroke-miterlimit="10" stroke-linecap="round"/>
<path d="M233.281 252.214C234.07 251.951 234.991 251.688 235.78 251.294" stroke="#FF6F40" stroke-miterlimit="10" stroke-linecap="round"/>
<path d="M240.512 249.321C270.239 235.641 286.945 203.282 296.284 171.187" stroke="#FF6F40" stroke-miterlimit="10" stroke-linecap="round" stroke-dasharray="3.9 3.9"/>
<path d="M142.778 13.8669V20.7069C142.778 26.3631 138.174 30.967 132.518 30.967H96.2131C90.557 30.967 85.9531 26.3631 85.9531 20.7069V13.8669" stroke="#303236" stroke-miterlimit="10"/>
<path d="M88.9837 162.374H87.1422V165.662H86.0898V157.77H88.9837C89.6414 157.77 90.2991 158.033 90.6937 158.428C91.0883 158.822 91.3514 159.48 91.3514 160.138C91.3514 160.796 91.0883 161.322 90.6937 161.848C90.2991 162.111 89.7729 162.374 88.9837 162.374ZM87.2737 161.453H88.8522C89.3783 161.453 89.6414 161.322 89.9045 161.059C90.1675 160.796 90.2991 160.532 90.2991 160.138C90.2991 159.743 90.1675 159.349 89.9045 159.086C89.6414 158.822 89.2468 158.691 88.8522 158.691H87.2737V161.453Z" fill="#303236"/>
<path d="M98.324 165.662H93.457V157.77H94.5093V164.61H98.1924V165.662H98.324Z" fill="#303236"/>
<path d="M105.949 165.662L105.029 163.426H101.477L100.688 165.662H99.5039L102.661 157.77H103.976L107.133 165.662H105.949ZM103.319 158.822L102.003 162.374H104.765L103.319 158.822Z" fill="#303236"/>
<path d="M113.716 158.691H111.085V165.531H110.033V158.691H107.402V157.639H113.716V158.691Z" fill="#303236"/>
<path d="M120.419 165.662H115.684V157.77H120.419V158.822H116.604V161.19H120.024V162.242H116.604V164.61H120.287V165.662H120.419Z" fill="#303236"/>
<path d="M127.789 159.48L126.868 159.875C126.868 159.48 126.605 159.217 126.342 158.954C126.079 158.691 125.684 158.559 125.158 158.559C124.764 158.559 124.369 158.691 124.106 158.954C123.843 159.217 123.711 159.48 123.711 159.875C123.711 160.138 123.843 160.401 123.974 160.664C124.106 160.927 124.369 161.059 124.764 161.059L125.947 161.322C126.605 161.453 127.131 161.716 127.394 162.111C127.789 162.506 127.921 163.032 127.921 163.558C127.921 164.216 127.657 164.742 127.131 165.268C126.605 165.794 125.947 165.926 125.158 165.926C124.237 165.926 123.58 165.663 123.054 165.268C122.527 164.742 122.264 164.216 122.133 163.558L123.185 163.163C123.185 163.689 123.448 164.084 123.711 164.347C123.974 164.61 124.501 164.873 125.027 164.873C125.553 164.873 125.947 164.742 126.211 164.479C126.474 164.216 126.605 163.953 126.605 163.558C126.605 163.295 126.474 163.032 126.342 162.769C126.079 162.506 125.816 162.374 125.421 162.374L124.237 162.111C123.711 161.979 123.185 161.716 122.791 161.322C122.396 160.927 122.264 160.533 122.264 159.875C122.264 159.217 122.527 158.691 123.054 158.296C123.58 157.77 124.237 157.639 124.895 157.639C125.684 157.639 126.342 157.77 126.737 158.165C127.394 158.559 127.657 158.954 127.789 159.48Z" fill="#303236"/>
<path d="M135.544 158.691H132.914V165.531H131.861V158.691H129.23V157.639H135.544V158.691Z" fill="#303236"/>
<path d="M142.126 165.662H137.391V157.77H142.126V158.822H138.443V161.19H141.863V162.242H138.443V164.61H142.126V165.662Z" fill="#303236"/>
<path d="M104.247 154.613H104.904C104.904 155.139 104.773 155.534 104.51 155.797C104.247 156.06 103.983 156.192 103.589 156.192C103.194 156.192 102.931 156.06 102.668 155.797C102.405 155.534 102.273 155.139 102.273 154.613H102.931C102.931 155.139 103.194 155.402 103.72 155.402C103.983 155.402 104.247 155.139 104.247 154.613Z" fill="#303236"/>
<path d="M124.504 167.372H125.688V168.03C125.688 168.819 125.425 169.345 124.767 169.609L124.504 169.082C124.899 168.951 125.03 168.688 125.162 168.425H124.504V167.372Z" fill="#303236"/>
<path d="M147.788 175.659C147.525 175.659 147.262 175.791 146.998 175.791H79.3876C78.993 175.791 78.73 175.791 78.3353 175.659C76.4938 175.133 75.0469 173.555 75.0469 171.45V151.325C75.0469 148.957 77.02 146.984 79.3876 146.984H146.341" stroke="#303236" stroke-miterlimit="10"/>
<path d="M78.3359 175.659C79.3882 177.106 80.9667 178.159 82.9398 178.159H147.92C148.051 178.159 148.051 178.159 148.183 178.159" stroke="#303236" stroke-miterlimit="10"/>
<path d="M239.352 99.8249V101.428" stroke="#303236" stroke-miterlimit="10"/>
<path d="M239.352 104.473V157.537" stroke="#303236" stroke-miterlimit="10" stroke-dasharray="3 3"/>
<path d="M239.352 158.98V160.583" stroke="#303236" stroke-miterlimit="10"/>
<path d="M260.567 125.148C259.251 125.148 258.082 124.709 257.059 123.832C256.036 122.956 255.598 121.64 255.598 120.032C255.598 119.009 255.89 117.986 256.328 117.256C256.767 116.525 257.351 115.94 258.082 115.502C258.813 115.063 259.544 114.917 260.421 114.917C261.59 114.917 262.467 115.209 263.198 115.794C263.928 116.379 264.513 117.109 264.659 118.132L263.344 118.571C263.198 117.84 262.759 117.256 262.321 116.817C261.736 116.379 261.152 116.232 260.275 116.232C259.251 116.232 258.521 116.525 257.79 117.256C257.059 117.986 256.767 118.863 256.767 120.032C256.767 121.202 257.059 122.225 257.79 122.956C258.521 123.686 259.251 123.979 260.275 123.979C261.152 123.979 261.736 123.832 262.321 123.394C262.905 122.956 263.198 122.371 263.49 121.64L264.659 122.079C264.367 123.102 263.928 123.832 263.051 124.417C262.613 124.856 261.736 125.148 260.567 125.148Z" fill="#303236"/>
<path d="M271.671 124.125C271.525 124.417 271.233 124.709 270.794 124.855C270.502 125.001 270.064 125.148 269.625 125.148C268.894 125.148 268.31 124.855 267.871 124.417C267.433 123.978 267.141 123.248 267.141 122.517V118.278H268.456V122.225C268.456 122.663 268.602 123.101 268.894 123.394C269.187 123.686 269.479 123.832 270.064 123.832C270.648 123.832 270.941 123.686 271.233 123.394C271.525 123.101 271.671 122.663 271.671 122.225V118.132H272.987V123.54C272.987 123.978 272.987 124.417 272.987 124.709H271.671C271.671 124.709 271.671 124.417 271.671 124.125Z" fill="#303236"/>
<path d="M277.226 127.632H275.91V118.278H277.226V119.301C277.372 119.009 277.664 118.717 278.102 118.425C278.541 118.132 278.979 118.132 279.418 118.132C280.441 118.132 281.172 118.425 281.61 119.155C282.195 119.74 282.487 120.617 282.487 121.64C282.487 122.663 282.195 123.54 281.61 124.125C281.026 124.855 280.295 125.148 279.272 125.148C278.833 125.148 278.395 125.001 277.956 124.855C277.518 124.709 277.226 124.417 277.079 124.125V127.632H277.226ZM281.172 121.64C281.172 120.909 281.026 120.471 280.587 120.032C280.295 119.594 279.71 119.301 279.126 119.301C278.541 119.301 278.102 119.448 277.664 120.032C277.226 120.471 277.079 121.055 277.079 121.64C277.079 122.371 277.226 122.955 277.664 123.394C278.102 123.832 278.541 124.125 279.126 124.125C279.71 124.125 280.149 123.832 280.587 123.394C281.026 122.955 281.172 122.371 281.172 121.64Z" fill="#303236"/>
<path d="M285.558 119.155C286.143 118.425 287.02 118.132 288.043 118.132C289.066 118.132 289.797 118.425 290.527 119.155C291.258 119.886 291.551 120.617 291.551 121.64C291.551 122.663 291.258 123.54 290.527 124.125C289.943 124.855 289.066 125.148 288.043 125.148C287.02 125.148 286.289 124.855 285.558 124.125C284.974 123.394 284.535 122.663 284.535 121.64C284.535 120.617 284.827 119.74 285.558 119.155ZM286.435 123.394C286.874 123.832 287.312 123.978 287.897 123.978C288.481 123.978 288.92 123.832 289.358 123.394C289.797 122.955 289.943 122.371 289.943 121.64C289.943 120.909 289.797 120.325 289.358 119.886C288.92 119.448 288.481 119.301 287.897 119.301C287.312 119.301 286.874 119.448 286.435 119.886C285.997 120.325 285.851 120.909 285.851 121.64C285.851 122.371 285.997 122.955 286.435 123.394Z" fill="#303236"/>
<path d="M295.206 121.055V124.855H293.891V118.132H295.206V119.155C295.644 118.425 296.375 117.986 297.252 117.986C297.983 117.986 298.568 118.279 299.006 118.717C299.444 119.155 299.591 119.886 299.591 120.617V124.855H298.275V120.909C298.275 119.74 297.691 119.302 296.668 119.302C296.229 119.302 295.791 119.448 295.498 119.886C295.352 120.179 295.206 120.617 295.206 121.055Z" fill="#303236"/>
<path d="M310.698 118.278V119.594C310.552 119.594 310.26 119.594 310.114 119.594C308.945 119.594 308.214 120.325 308.214 121.64V125.002H306.898V118.278H308.214V119.448C308.652 118.571 309.237 118.132 310.26 118.132C310.406 118.132 310.552 118.132 310.698 118.278Z" fill="#303236"/>
<path d="M317.565 122.663L318.734 123.102C318.588 123.686 318.149 124.271 317.711 124.563C317.126 125.002 316.542 125.148 315.811 125.148C314.934 125.148 314.057 124.855 313.472 124.125C312.888 123.54 312.449 122.663 312.449 121.494C312.449 120.471 312.742 119.594 313.326 119.009C313.911 118.279 314.642 117.986 315.518 117.986C316.542 117.986 317.272 118.279 317.857 118.863C318.442 119.448 318.734 120.325 318.734 121.348C318.734 121.494 318.734 121.64 318.734 121.786H313.765C313.765 122.371 313.911 122.809 314.349 123.248C314.788 123.686 315.226 123.832 315.811 123.832C316.542 123.979 317.272 123.54 317.565 122.663ZM313.618 120.909H317.272C317.272 120.471 317.126 120.032 316.834 119.74C316.542 119.448 316.103 119.302 315.518 119.302C314.934 119.302 314.642 119.448 314.203 119.74C313.911 120.032 313.765 120.471 313.618 120.909Z" fill="#303236"/>
<path d="M325.898 124.125C325.752 124.417 325.46 124.709 325.167 124.856C324.875 125.148 324.437 125.148 323.852 125.148C322.829 125.148 322.098 124.856 321.514 124.125C320.929 123.394 320.637 122.663 320.637 121.64C320.637 120.617 320.929 119.886 321.514 119.156C322.098 118.425 322.829 118.132 323.852 118.132C324.437 118.132 324.875 118.279 325.167 118.425C325.46 118.571 325.752 118.863 325.898 119.156V114.771H327.214V123.54C327.214 123.979 327.214 124.417 327.214 124.709H326.044C325.898 124.709 325.898 124.417 325.898 124.125ZM321.952 121.64C321.952 122.371 322.098 122.956 322.537 123.394C322.829 123.832 323.414 124.125 323.998 124.125C324.583 124.125 325.021 123.832 325.46 123.394C325.898 122.956 326.044 122.371 326.044 121.64C326.044 120.909 325.898 120.325 325.46 120.032C325.167 119.594 324.583 119.448 323.998 119.448C323.414 119.448 322.975 119.594 322.537 120.032C322.098 120.471 321.952 120.909 321.952 121.64Z" fill="#303236"/>
<path d="M334.664 124.125C334.517 124.417 334.225 124.709 333.787 124.855C333.494 125.001 333.056 125.148 332.617 125.148C331.887 125.148 331.302 124.855 330.864 124.417C330.425 123.978 330.133 123.248 330.133 122.517V118.278H331.448V122.225C331.448 122.663 331.594 123.101 331.887 123.394C332.179 123.686 332.471 123.832 333.056 123.832C333.641 123.832 333.933 123.686 334.225 123.394C334.517 123.101 334.664 122.663 334.664 122.225V118.132H335.979V123.54C335.979 123.978 335.979 124.417 335.979 124.709H334.664C334.664 124.709 334.664 124.417 334.664 124.125Z" fill="#303236"/>
<path d="M341.678 119.302C341.093 119.302 340.655 119.448 340.216 119.886C339.778 120.325 339.632 120.909 339.632 121.64C339.632 122.371 339.778 122.955 340.216 123.394C340.655 123.832 341.093 123.979 341.678 123.979C342.263 123.979 342.701 123.832 342.993 123.54C343.286 123.248 343.432 122.955 343.578 122.517L344.747 122.955C344.601 123.54 344.163 123.979 343.724 124.417C343.14 124.855 342.555 125.002 341.824 125.002C340.801 125.002 340.07 124.709 339.34 123.979C338.755 123.248 338.316 122.517 338.316 121.494C338.316 120.471 338.609 119.594 339.34 119.009C339.924 118.279 340.801 117.986 341.678 117.986C342.555 117.986 343.14 118.132 343.724 118.571C344.163 119.009 344.601 119.448 344.747 120.032L343.578 120.471C343.432 120.032 343.286 119.74 342.993 119.448C342.555 119.448 342.263 119.302 341.678 119.302Z" fill="#303236"/>
<path d="M351.768 122.663L352.937 123.102C352.791 123.686 352.352 124.271 351.914 124.563C351.329 125.002 350.745 125.148 350.014 125.148C349.137 125.148 348.26 124.855 347.675 124.125C347.091 123.54 346.652 122.663 346.652 121.494C346.652 120.471 346.945 119.594 347.529 119.009C348.114 118.279 348.845 117.986 349.722 117.986C350.745 117.986 351.475 118.279 352.06 118.863C352.645 119.448 352.937 120.325 352.937 121.348C352.937 121.494 352.937 121.64 352.937 121.786H347.968C347.968 122.371 348.114 122.809 348.552 123.248C348.991 123.686 349.429 123.832 350.014 123.832C350.745 123.979 351.475 123.54 351.768 122.663ZM347.968 120.909H351.622C351.622 120.471 351.475 120.032 351.183 119.74C350.891 119.448 350.452 119.302 349.868 119.302C349.283 119.302 348.991 119.448 348.552 119.74C348.114 120.032 347.968 120.471 347.968 120.909Z" fill="#303236"/>
<path d="M359.222 118.278V119.594C359.076 119.594 358.783 119.594 358.637 119.594C357.468 119.594 356.737 120.325 356.737 121.64V125.002H355.422V118.278H356.737V119.448C357.176 118.571 357.76 118.132 358.783 118.132C358.93 118.132 359.076 118.132 359.222 118.278Z" fill="#303236"/>
<path d="M366.092 122.663L367.261 123.102C367.115 123.686 366.677 124.271 366.238 124.563C365.653 125.002 365.069 125.148 364.338 125.148C363.461 125.148 362.584 124.855 362 124.125C361.415 123.54 360.977 122.663 360.977 121.494C360.977 120.471 361.269 119.594 361.853 119.009C362.438 118.279 363.169 117.986 364.046 117.986C365.069 117.986 365.8 118.279 366.384 118.863C366.969 119.448 367.261 120.325 367.261 121.348C367.261 121.494 367.261 121.64 367.261 121.786H362.292C362.292 122.371 362.438 122.809 362.877 123.248C363.315 123.686 363.753 123.832 364.338 123.832C365.069 123.979 365.8 123.54 366.092 122.663ZM362.146 120.909H365.8C365.8 120.471 365.653 120.032 365.361 119.74C365.069 119.448 364.63 119.302 364.046 119.302C363.461 119.302 363.169 119.448 362.73 119.74C362.438 120.032 362.292 120.471 362.146 120.909Z" fill="#303236"/>
<path d="M255.598 142.686V140.201L259.836 134.648H262.759V140.64H264.367V142.686H262.759V144.878H260.275V142.686H255.598ZM260.421 140.64V137.278L257.79 140.64H260.421Z" fill="#303236"/>
<path d="M265.533 144.586L266.117 142.54C266.702 142.832 267.287 142.978 267.871 142.978C268.748 142.978 269.479 142.832 270.064 142.394C270.648 141.955 270.941 141.371 271.087 140.494C270.941 140.786 270.502 141.078 270.21 141.225C269.917 141.371 269.333 141.517 268.894 141.517C267.871 141.517 266.994 141.225 266.41 140.494C265.825 139.763 265.387 139.032 265.387 138.009C265.387 136.986 265.825 136.109 266.556 135.378C267.287 134.648 268.31 134.355 269.479 134.355C270.648 134.355 271.671 134.794 272.548 135.671C273.425 136.548 273.717 137.717 273.717 139.325C273.717 141.225 273.279 142.54 272.256 143.563C271.379 144.586 269.917 145.025 268.164 145.025C266.994 145.171 266.117 144.878 265.533 144.586ZM270.21 139.032C270.502 138.74 270.648 138.448 270.648 138.009C270.648 137.571 270.502 137.278 270.21 136.986C269.917 136.694 269.625 136.548 269.041 136.548C268.602 136.548 268.164 136.694 267.871 136.986C267.579 137.278 267.433 137.571 267.433 138.009C267.433 138.448 267.579 138.74 267.871 139.032C268.164 139.325 268.456 139.471 269.041 139.471C269.625 139.325 269.917 139.178 270.21 139.032Z" fill="#303236"/>
<path d="M277.829 145.327H276.66V136.558H277.829V145.327Z" fill="#303236"/>
<path d="M283.963 143.281L284.986 143.573C284.84 144.158 284.547 144.596 284.109 144.888C283.67 145.181 283.086 145.473 282.501 145.473C281.624 145.473 281.04 145.181 280.455 144.596C279.87 144.011 279.578 143.281 279.578 142.258C279.578 141.381 279.87 140.65 280.455 140.065C281.04 139.481 281.624 139.188 282.355 139.188C283.232 139.188 283.963 139.481 284.401 140.065C284.84 140.65 285.132 141.381 285.132 142.258C285.132 142.404 285.132 142.55 285.132 142.696H280.747C280.747 143.281 280.894 143.573 281.332 144.011C281.77 144.45 282.063 144.45 282.647 144.45C283.086 144.45 283.67 144.158 283.963 143.281ZM280.601 141.819H283.817C283.817 141.381 283.67 141.088 283.378 140.796C283.086 140.504 282.647 140.358 282.209 140.358C281.77 140.358 281.332 140.504 281.04 140.796C280.747 141.088 280.601 141.381 280.601 141.819Z" fill="#303236"/>
<path d="M286.452 137.873C286.306 137.727 286.16 137.581 286.16 137.288C286.16 136.996 286.306 136.85 286.452 136.704C286.599 136.558 286.745 136.411 287.037 136.411C287.329 136.411 287.476 136.558 287.622 136.704C287.768 136.85 287.914 136.996 287.914 137.288C287.914 137.581 287.768 137.727 287.622 137.873C287.476 138.019 287.329 138.165 287.037 138.165C286.745 138.165 286.599 138.019 286.452 137.873ZM287.476 145.327H286.306V139.481H287.476V145.327Z" fill="#303236"/>
<path d="M208.895 114.835C217.394 114.835 224.129 121.766 224.129 130.147C224.129 138.689 217.233 145.458 208.895 145.458V160.609H389.62V99.3628H208.895V114.835Z" stroke="#303236" stroke-miterlimit="10"/>
<path d="M20.1287 104.147C21.3633 104.457 22.4983 105.384 23.2335 106.628C23.9668 107.869 24.2751 109.38 23.9149 110.818C23.1726 113.782 20.5069 115.547 18.0561 114.933C16.8155 114.622 15.3589 113.531 14.3031 112.098C13.245 110.661 12.6845 109.014 13.0295 107.637C13.3779 106.246 14.469 105.21 15.8558 104.597C17.2452 103.983 18.8594 103.829 20.1287 104.147Z" stroke="#FF6F40"/>
<path d="M41.0936 26.5945C41.2676 25.7555 41.8636 24.9547 42.6982 24.4142C43.5294 23.876 44.5531 23.6252 45.5399 23.8298C46.5294 24.035 47.7088 24.8389 48.6008 25.8683C49.041 26.3763 49.392 26.918 49.6078 27.4344C49.8255 27.9554 49.8907 28.414 49.8151 28.7783C49.7426 29.1281 49.4972 29.5014 49.0699 29.8686C48.6466 30.2323 48.0794 30.5594 47.4393 30.8204C46.1452 31.348 44.6665 31.5617 43.6603 31.353C42.7214 31.1583 41.9861 30.4548 41.5245 29.5163C41.0617 28.5752 40.9124 27.4684 41.0936 26.5945Z" stroke="#FF6F40"/>
<path d="M37.0007 125.244C41.1618 126.287 44.9992 132.382 43.8032 137.156C42.6072 141.93 35.748 147.898 31.5869 146.856C27.4258 145.813 24.3679 138.382 25.5639 133.608C26.7599 128.834 32.8396 124.202 37.0007 125.244Z" stroke="#303236" stroke-dasharray="3 3"/>
</svg>
