<svg width="400" height="342" viewBox="0 0 400 342" fill="none" xmlns="http://www.w3.org/2000/svg">
<path d="M281.614 91.814C281.43 92.4596 280.969 95.411 284.381 97.809C284.381 97.809 280.877 100.853 280.415 102.144C279.862 101.129 279.216 99.8381 278.663 98.3624C278.11 96.8867 277.833 95.5955 277.648 94.4887C278.017 94.0275 278.571 93.4741 281.522 91.814C281.614 91.7218 281.614 91.7218 281.614 91.814Z" stroke="#FF6F40" stroke-miterlimit="10"/>
<path d="M290.931 91.814C291.115 92.4596 291.577 95.411 288.164 97.809C288.164 97.809 291.669 100.853 292.13 102.144C292.683 101.129 293.329 99.8381 293.882 98.3624C294.436 96.8867 294.712 95.5955 294.897 94.4887C294.528 94.0275 293.975 93.4741 291.023 91.814C290.931 91.7218 290.839 91.7218 290.931 91.814Z" stroke="#FF6F40" stroke-miterlimit="10"/>
<path d="M277.742 94.6732C277.742 94.6732 270.548 97.1634 270.363 97.4401C270.179 97.7168 268.98 97.9935 268.611 98.7313C268.242 99.4692 265.844 110.445 265.475 112.843C265.106 115.241 263.999 120.498 264.091 122.619C264.184 124.648 263.907 131.842 264.46 134.701C264.921 137.561 264.46 143.924 264.368 144.755C264.276 145.585 271.562 146.968 273.222 144.755C273.222 144.755 271.47 129.444 271.47 127.969C271.378 126.493 271.101 123.541 271.839 120.682C272.577 117.823 273.591 112.197 273.499 111.09C273.499 110.076 273.407 100.76 270.271 97.6246" stroke="#FF6F40" stroke-miterlimit="10"/>
<path d="M273.407 110.998C273.407 110.998 274.698 119.022 273.868 121.789C273.038 124.556 271.562 130.459 271.562 130.459" stroke="#FF6F40" stroke-miterlimit="10"/>
<path d="M272.859 142.357C272.859 142.357 287.063 147.06 299.422 142.357" stroke="#FF6F40" stroke-miterlimit="10"/>
<path d="M284.105 98.0857C284.105 98.0857 286.78 98.5468 287.149 100.484C287.518 102.421 287.149 122.619 287.149 122.619L287.334 144.478" stroke="#FF6F40" stroke-miterlimit="10"/>
<path d="M281.617 91.7218C281.617 91.7218 286.967 93.013 291.025 91.6295" stroke="#FF6F40" stroke-miterlimit="10"/>
<path d="M286.41 99.1001C286.41 99.1001 288.07 98.639 288.624 97.9933" stroke="#FF6F40" stroke-miterlimit="10"/>
<path d="M294.805 94.6732C294.805 94.5809 302.183 97.7168 302.183 97.7168C302.183 97.7168 303.843 98.2702 304.304 99.2847C304.766 100.299 307.994 116.071 308.086 117.085C308.178 118.1 308.639 120.59 308.639 121.605C308.639 122.619 308.27 141.158 308.27 141.619C308.27 142.08 308.086 145.585 307.994 145.677C307.901 145.769 300.523 147.245 299.324 144.847C299.324 144.847 300.707 131.566 301.169 128.522C301.63 125.571 301.63 123.08 301.353 121.697C301.076 120.313 299.14 113.304 299.324 112.289C299.508 111.275 300.523 101.129 300.984 99.7459C301.538 98.3624 302.091 97.7168 302.091 97.7168" stroke="#FF6F40" stroke-miterlimit="10"/>
<path d="M299.418 112.197C299.418 112.197 298.403 119.668 298.772 122.158C299.141 124.74 300.248 129.26 301.078 130.459" stroke="#FF6F40" stroke-miterlimit="10"/>
<path d="M285.763 102.697C285.967 102.697 286.132 102.532 286.132 102.328C286.132 102.125 285.967 101.959 285.763 101.959C285.56 101.959 285.395 102.125 285.395 102.328C285.395 102.532 285.56 102.697 285.763 102.697Z" stroke="#FF6F40" stroke-miterlimit="10"/>
<path d="M285.763 112.566C285.967 112.566 286.132 112.401 286.132 112.197C286.132 111.993 285.967 111.828 285.763 111.828C285.56 111.828 285.395 111.993 285.395 112.197C285.395 112.401 285.56 112.566 285.763 112.566Z" stroke="#FF6F40" stroke-miterlimit="10"/>
<path d="M285.763 122.527C285.967 122.527 286.132 122.362 286.132 122.158C286.132 121.954 285.967 121.789 285.763 121.789C285.56 121.789 285.395 121.954 285.395 122.158C285.395 122.362 285.56 122.527 285.763 122.527Z" stroke="#FF6F40" stroke-miterlimit="10"/>
<path d="M285.763 132.488C285.967 132.488 286.132 132.323 286.132 132.119C286.132 131.915 285.967 131.75 285.763 131.75C285.56 131.75 285.395 131.915 285.395 132.119C285.395 132.323 285.56 132.488 285.763 132.488Z" stroke="#FF6F40" stroke-miterlimit="10"/>
<path d="M260.492 280.519C261.322 277.198 261.876 274.247 261.876 272.494C261.876 266.407 268.332 255.708 268.701 255.063C269.07 254.325 269.531 249.99 269.531 249.99C269.623 249.252 280.506 251.097 286.501 251.189C291.851 251.281 305.316 249.99 305.962 249.99C306.054 249.99 306.054 249.99 306.054 250.082C306.515 250.544 306.054 253.679 306.146 255.063C306.239 256.539 311.035 267.698 311.773 270.189C312.141 271.572 313.34 275.999 314.632 280.611" stroke="#FF6F40" stroke-miterlimit="10"/>
<path d="M269.535 249.898C269.535 249.898 286.413 256.262 287.336 256.262C288.258 256.262 306.52 249.898 306.243 249.898" stroke="#FF6F40" stroke-miterlimit="10"/>
<path d="M286.233 255.985C286.233 255.985 284.573 256.354 285.034 258.014C285.495 259.674 291.214 259.674 288.908 255.893" stroke="#FF6F40" stroke-miterlimit="10"/>
<path d="M285.213 258.291C285.213 258.291 279.034 269.912 279.403 270.834C279.772 271.757 283.922 266.592 284.752 264.563C285.582 262.534 286.32 259.121 286.32 259.121" stroke="#FF6F40" stroke-miterlimit="10"/>
<path d="M279.492 270.742C279.492 270.742 282.72 274.892 283.458 274.155C284.196 273.509 288.07 261.427 287.24 258.936" stroke="#FF6F40" stroke-miterlimit="10"/>
<path d="M286.689 264.563C286.689 264.563 286.044 278.674 286.689 279.043C287.335 279.32 289.641 276.368 290.286 276.645C290.932 276.922 292.592 279.596 292.961 279.043C293.238 278.49 292.408 272.956 291.67 271.019C291.024 269.082 287.981 259.029 287.981 259.029" stroke="#FF6F40" stroke-miterlimit="10"/>
<path d="M288.723 258.752C288.723 258.752 295.732 266.592 295.732 267.053C295.732 267.422 293.058 266.868 292.965 267.33C292.873 267.791 293.15 271.203 292.596 270.927C292.135 270.65 291.121 269.635 291.121 269.635" stroke="#FF6F40" stroke-miterlimit="10"/>
<path d="M306.148 254.971L294.711 259.029" stroke="#FF6F40" stroke-miterlimit="10"/>
<path d="M268.703 255.063L279.679 259.029" stroke="#FF6F40" stroke-miterlimit="10"/>
<path d="M269.262 257C268.432 259.951 267.417 262.718 266.403 265.577C265.942 266.961 265.48 268.436 265.019 269.82C264.558 271.295 264.189 272.679 263.82 274.155C263.82 272.587 264.005 271.111 264.281 269.635C264.558 268.16 265.019 266.684 265.48 265.208C266.587 262.441 267.786 259.674 269.262 257Z" fill="#FF6F40"/>
<path d="M269.344 280.519C269.16 278.766 269.16 276.922 269.252 275.169C269.344 273.417 269.529 271.572 269.805 269.82C270.359 266.315 271.004 262.81 272.111 259.398C271.742 262.902 271.189 266.407 270.728 269.912L269.99 275.169C269.805 277.014 269.529 278.766 269.344 280.519Z" fill="#FF6F40"/>
<path d="M303.109 259.49C304.032 262.626 304.585 265.762 304.862 268.99C305.046 270.558 305.138 272.218 305.138 273.786C305.138 275.354 304.954 277.014 304.493 278.582C304.677 277.014 304.493 275.354 304.401 273.786C304.308 272.218 304.124 270.65 303.939 268.99C303.663 265.854 303.294 262.718 303.109 259.49Z" fill="#FF6F40"/>
<path d="M306.254 260.689C307.361 263.179 308.099 265.762 308.56 268.436C308.836 269.727 309.021 271.111 309.021 272.494C309.113 273.878 309.113 275.261 308.836 276.553C308.744 275.169 308.56 273.878 308.375 272.587C308.191 271.295 307.914 269.912 307.637 268.621C307.176 265.946 306.623 263.364 306.254 260.689Z" fill="#FF6F40"/>
<path d="M289.087 176.852C289.087 176.852 284.752 174.915 280.51 171.318C276.728 168.09 279.403 165.784 280.049 165.415C280.049 165.415 280.049 165.323 280.049 165.415C279.126 165.599 273.131 167.075 272.486 168.274C271.748 169.565 269.073 175.837 268.981 180.449C268.889 185.06 267.69 201.016 267.413 205.166C267.413 205.166 266.214 215.312 265.568 218.263C265.015 221.03 264.738 222.783 264.738 222.967C265.015 223.059 268.612 224.35 270.641 224.443L272.67 224.535C272.762 223.705 275.068 201.293 275.345 194.191C275.714 186.905 275.253 176.022 274.238 172.332C273.224 168.643 272.486 168.274 272.486 168.274" stroke="#303236" stroke-miterlimit="10"/>
<path d="M275.35 184.967C275.35 184.967 276.826 192.161 276.826 194.19C276.826 196.22 273.598 214.481 273.598 214.481" stroke="#303236" stroke-miterlimit="10"/>
<path d="M279.961 165.322C282.451 165.599 285.218 165.783 288.077 165.783C291.582 165.783 294.718 165.599 297.577 165.322" stroke="#303236" stroke-miterlimit="10"/>
<path d="M273.598 216.51C277.656 217.248 282.452 217.802 287.986 217.894C294.257 217.986 299.791 217.34 304.311 216.51" stroke="#303236" stroke-miterlimit="10"/>
<path d="M288.723 176.851C288.723 176.851 293.058 174.914 297.3 171.317C301.082 168.089 298.407 165.783 297.761 165.414C297.761 165.414 297.761 165.322 297.761 165.414C298.684 165.599 304.679 167.075 305.324 168.274C306.062 169.565 308.737 175.836 308.829 180.448C308.921 185.06 310.12 201.015 310.397 205.166C310.397 205.166 311.596 215.311 312.242 218.263C312.795 221.03 313.072 222.782 313.072 222.966C312.795 223.059 309.198 224.35 307.169 224.442L305.14 224.534C305.048 223.704 302.742 201.292 302.465 194.19C302.096 186.904 302.557 176.021 303.572 172.332C304.586 168.642 305.324 168.274 305.324 168.274" stroke="#303236" stroke-miterlimit="10"/>
<path d="M302.46 184.967C302.46 184.967 300.984 192.161 300.984 194.19C300.984 196.22 304.212 214.481 304.212 214.481" stroke="#303236" stroke-miterlimit="10"/>
<path d="M50.7619 65.0673C50.7619 57.6888 41.1699 51.6938 33.1458 51.6938C25.214 51.6938 18.7578 57.6888 18.7578 65.0673C18.7578 72.4458 25.214 80.6543 33.1458 80.6543C41.1699 80.6543 50.7619 72.4458 50.7619 65.0673Z" stroke="#FF6F40" stroke-dasharray="3 3"/>
<path d="M94.7578 69.1254C94.7578 68.2953 94.2967 67.373 93.5588 66.6352C92.821 65.8973 91.8986 65.4362 91.0686 65.4362C90.1463 65.4362 88.9473 65.8973 88.025 66.6352C87.0104 67.373 86.457 68.2031 86.457 69.0332C86.457 69.8633 87.0104 70.7856 87.9327 71.6157C88.7628 72.4457 89.8696 72.9069 90.6996 72.9069C91.5297 72.9069 92.6365 72.4457 93.3743 71.7079C94.2967 70.8778 94.7578 69.9555 94.7578 69.1254Z" stroke="#FF6F40"/>
<path d="M64.3127 43.9464C64.3127 42.0095 63.2059 39.7038 61.4535 37.9514C59.7012 36.199 57.4876 35 55.2741 35C53.0605 35 50.2014 36.199 47.8956 38.0436C46.7888 38.9659 45.7743 39.9805 45.0365 40.995C44.2986 42.0095 43.9297 43.0241 43.9297 44.0386C43.9297 45.9755 45.3131 48.0968 47.4345 49.7569C49.4635 51.4171 52.1382 52.5239 54.3518 52.5239C56.5653 52.5239 59.0555 51.4171 60.9924 49.7569C63.0215 48.0968 64.3127 45.8832 64.3127 43.9464Z" stroke="#303236"/>
<path d="M349.774 288.358H27.7038C19.5875 288.358 13.0391 282.455 13.0391 275.354V85.6348C13.0391 78.4408 19.6797 72.6302 27.7038 72.6302H349.682C357.798 72.6302 364.346 78.533 364.346 85.6348V275.354C364.439 282.548 357.982 288.358 349.774 288.358Z" stroke="#303236" stroke-miterlimit="10"/>
<path d="M340.645 80.6543H39.6953V280.518H340.645V80.6543Z" stroke="#303236" stroke-miterlimit="10"/>
<path d="M26.9679 188.841C31.395 188.841 35.0842 185.613 35.0842 181.647C35.0842 177.681 31.4872 174.453 26.9679 174.453C22.5408 174.453 18.8516 177.681 18.8516 181.647C18.8516 185.705 22.4486 188.841 26.9679 188.841Z" stroke="#303236" stroke-miterlimit="10"/>
<path d="M353.285 183.584C354.484 183.584 355.407 182.754 355.407 181.739C355.407 180.725 354.484 179.895 353.285 179.895C352.086 179.895 351.164 180.725 351.164 181.739C351.164 182.754 352.179 183.584 353.285 183.584Z" stroke="#303236" stroke-miterlimit="10"/>
<path d="M78.3407 92.921H64.875V111.367H84.6124V105.833" stroke="#FF6F40" stroke-miterlimit="10"/>
<path d="M71.5117 102.144L74.9243 105.188L90.419 91.4452" stroke="#FF6F40" stroke-miterlimit="10"/>
<path d="M84.6124 180.171V185.705H64.875V167.444H78.2485H84.5202V180.171H84.6124Z" stroke="#303236" stroke-miterlimit="10"/>
<path d="M64.875 151.119H315.097" stroke="#303236" stroke-miterlimit="10"/>
<path d="M64.875 238.646H315.097" stroke="#303236" stroke-miterlimit="10"/>
<path d="M106.93 100.484H224.893" stroke="#303236" stroke-miterlimit="10"/>
<path d="M95.5859 117.085H180.715" stroke="#303236" stroke-miterlimit="10"/>
<path d="M167.34 132.119H226.183" stroke="#303236" stroke-miterlimit="10"/>
<path d="M187.812 117.085H226.088" stroke="#303236" stroke-miterlimit="10"/>
<path d="M96.4141 132.119H155.35" stroke="#303236" stroke-miterlimit="10"/>
<path d="M78.3407 251.374H64.875V269.635H84.6124V264.194" stroke="#FF6F40" stroke-miterlimit="10"/>
<path d="M71.5117 260.504L74.9243 263.548L90.419 249.805" stroke="#FF6F40" stroke-miterlimit="10"/>
<path d="M106.93 258.937H224.893" stroke="#303236" stroke-miterlimit="10"/>
<path d="M106.93 208.025H171.86" stroke="#303236" stroke-miterlimit="10"/>
<path d="M95.5859 191.424H180.715" stroke="#303236" stroke-miterlimit="10"/>
<path d="M140.684 176.482H226.182" stroke="#303236" stroke-miterlimit="10"/>
<path d="M187.812 191.424H226.088" stroke="#303236" stroke-miterlimit="10"/>
<path d="M179.148 208.025H217.609" stroke="#303236" stroke-miterlimit="10"/>
<path d="M96.4141 176.482H129.525" stroke="#303236" stroke-miterlimit="10"/>
<path d="M64.875 167.444L84.6124 185.705" stroke="#303236" stroke-miterlimit="10"/>
<path d="M84.6124 167.444L64.875 185.705" stroke="#303236" stroke-miterlimit="10"/>
<path d="M221.941 292.047C221.941 300.625 227.108 307.542 233.514 307.542H372.802C381.137 307.542 387.957 298.503 387.957 287.251V73.2758C387.957 62.0236 381.137 52.985 372.802 52.985H233.239C227.039 52.985 221.941 59.7178 221.941 68.1108" stroke="#FF6F40" stroke-dasharray="3 3"/>
</svg>
