<svg width="113" height="35" viewBox="0 0 113 35" fill="none" xmlns="http://www.w3.org/2000/svg">
<path d="M27.2763 30.4073C24.1673 33.475 20.3895 34.9999 15.9428 34.9999C11.4962 34.9999 7.71835 33.475 4.6274 30.4073C1.53644 27.3396 0 23.5903 0 19.1412C0 14.6922 1.53644 10.9428 4.6274 7.87514C7.71835 4.80746 11.4781 3.28259 15.9428 3.28259C20.3895 3.28259 24.1673 4.80746 27.2763 7.87514C30.3854 10.9428 31.9399 14.6922 31.9399 19.1412C31.9399 23.5903 30.3854 27.3396 27.2763 30.4073ZM8.8752 26.2992C10.7732 28.1649 13.1411 29.1157 15.9428 29.1157C18.7626 29.1157 21.1125 28.1828 23.0105 26.2992C24.9084 24.4334 25.8664 22.0295 25.8664 19.1233C25.8664 16.2171 24.9084 13.8132 23.0105 11.9295C21.1125 10.0458 18.7626 9.11298 15.9428 9.11298C13.123 9.11298 10.7732 10.0638 8.8752 11.9474C6.97725 13.8311 6.01923 16.235 6.01923 19.1412C6.01923 22.0475 6.97725 24.4334 8.8752 26.2992Z" fill="#303236"/>
<path d="M13.1559 18.4958C13.7106 18.3471 14.0407 17.7803 13.8932 17.2297C13.7457 16.6792 13.1764 16.3533 12.6216 16.502C12.0669 16.6506 11.7368 17.2174 11.8843 17.768C12.0318 18.3186 12.6011 18.6444 13.1559 18.4958Z" fill="#303236"/>
<path d="M18.2067 17.1417C18.7614 16.9931 19.0915 16.4263 18.944 15.8757C18.7965 15.3252 18.2272 14.9993 17.6724 15.148C17.1177 15.2966 16.7876 15.8634 16.9351 16.414C17.0826 16.9646 17.6519 17.2904 18.2067 17.1417Z" fill="#303236"/>
<path d="M14.5094 23.5465C15.0641 23.3979 15.3943 22.8311 15.2467 22.2805C15.0992 21.7299 14.5299 21.4041 13.9752 21.5528C13.4204 21.7014 13.0903 22.2682 13.2378 22.8188C13.3853 23.3694 13.9546 23.6952 14.5094 23.5465Z" fill="#303236"/>
<path d="M19.5621 22.1931C20.1169 22.0445 20.447 21.4777 20.2995 20.9271C20.1519 20.3765 19.5826 20.0507 19.0279 20.1994C18.4731 20.348 18.143 20.9148 18.2906 21.4654C18.4381 22.016 19.0074 22.3418 19.5621 22.1931Z" fill="#303236"/>
<path d="M49.0746 12.5933H54.7323V34.3899H49.0746V31.9501C47.7008 33.9773 45.5137 34.9999 42.5312 34.9999C40.1271 34.9999 38.1387 34.1926 36.5842 32.596C35.0116 30.9993 34.2344 28.7928 34.2344 25.9762V12.5933H39.8921V25.2766C39.8921 26.7297 40.2898 27.842 41.0851 28.6134C41.8804 29.3848 42.9288 29.7615 44.2484 29.7615C45.7125 29.7615 46.8874 29.313 47.7551 28.416C48.6408 27.519 49.0746 26.1556 49.0746 24.3617V12.5933Z" fill="#303236"/>
<path d="M72.5011 18.0115H67.5303V27.071C67.5303 27.8245 67.7291 28.3806 68.1087 28.7215C68.4883 29.0623 69.0487 29.2597 69.7717 29.3135C70.4947 29.3494 71.4166 29.3494 72.5011 29.2955V34.3904C68.6148 34.8209 65.8673 34.4622 64.2586 33.2961C62.6679 32.13 61.8726 30.049 61.8726 27.071V18.0115H58.0586V12.5937H61.8726V8.19853L67.5303 6.49426V12.5937H72.5011V18.0115Z" fill="#303236"/>
<path d="M95.3067 12.5933V34.3899H89.649V17.9931H83.196V34.3899H77.5383V17.9931H74.375V12.5933H77.5383V12.378C77.5383 6.29645 80.9727 3.26465 87.8595 3.26465C89.414 3.26465 91.1312 3.46198 92.993 3.8746V9.02327C91.0228 8.79006 89.3237 8.68242 87.8595 8.68242C86.2869 8.68242 85.112 8.95151 84.3528 9.4897C83.5936 10.0279 83.214 10.9966 83.214 12.3959V12.6112H95.3067V12.5933Z" fill="#303236"/>
<path d="M112.468 18.0115H107.497V27.071C107.497 27.8245 107.696 28.3806 108.076 28.7215C108.455 29.0623 109.015 29.2597 109.738 29.3135C110.462 29.3494 111.383 29.3494 112.468 29.2955V34.3904C108.582 34.8209 105.834 34.4622 104.225 33.2961C102.635 32.13 101.839 30.049 101.839 27.071V18.0115H98.0254V12.5937H101.839V8.19853L107.497 6.49426V12.5937H112.468V18.0115Z" fill="#303236"/>
<path d="M38.7714 4.43155H37.2169V7.28395C37.2169 7.51717 37.2711 7.69657 37.3976 7.8042C37.5242 7.91184 37.6868 7.9836 37.9218 7.9836C38.1568 8.00154 38.428 8.00154 38.7714 7.9836V9.58023C37.5422 9.72375 36.6927 9.59817 36.1866 9.23938C35.6804 8.88058 35.4274 8.21682 35.4274 7.28395V4.43155H34.2344V2.72729H35.4274V1.36387L37.1988 0.825684V2.74523H38.7533V4.43155H38.7714Z" fill="#303236"/>
<path d="M43.8516 2.54743C44.6108 2.54743 45.2254 2.79858 45.7134 3.30089C46.2014 3.8032 46.4545 4.50285 46.4545 5.38189V9.57977H44.6831V5.59717C44.6831 5.14868 44.5566 4.78988 44.3035 4.55667C44.0504 4.32345 43.7251 4.19788 43.3093 4.19788C42.8574 4.19788 42.4778 4.34139 42.2067 4.62843C41.9356 4.91546 41.791 5.32807 41.791 5.90214V9.59771H40.0195V0H41.791V3.49823C42.2429 2.87034 42.9297 2.54743 43.8516 2.54743Z" fill="#303236"/>
<path d="M49.4907 6.8884C49.7257 7.7495 50.3764 8.18005 51.4429 8.18005C52.1298 8.18005 52.6359 7.94683 52.9793 7.49834L54.4073 8.32357C53.7204 9.29231 52.7263 9.79462 51.4067 9.79462C50.268 9.79462 49.3461 9.45376 48.6592 8.77206C47.9723 8.09035 47.6289 7.22925 47.6289 6.18875C47.6289 5.16619 47.9723 4.30509 48.6412 3.60544C49.328 2.92373 50.1957 2.56494 51.2621 2.56494C52.2744 2.56494 53.1059 2.90579 53.7566 3.60544C54.4073 4.30509 54.7508 5.14825 54.7508 6.17081C54.7508 6.40402 54.7327 6.63724 54.6785 6.8884H49.4907ZM49.4546 5.50704H52.9613C52.8528 5.04061 52.654 4.69976 52.3286 4.46654C52.0032 4.23333 51.6598 4.12569 51.2441 4.12569C50.7741 4.12569 50.3764 4.25127 50.0511 4.48448C49.7618 4.73564 49.563 5.07649 49.4546 5.50704Z" fill="#303236"/>
</svg>
